<svg xmlns="http://www.w3.org/2000/svg" xmlns:xlink="http://www.w3.org/1999/xlink" width="66" height="68" viewBox="0 0 66 68"><defs><style>.a{fill:#fff;stroke:#707070;}.b{clip-path:url(#a);}.c{fill:#ffd1ec;}.d{fill:#465159;}</style><clipPath id="a"><rect class="a" width="66" height="68" transform="translate(1082 1992)"/></clipPath></defs><g class="b" transform="translate(-1082 -1992)"><g transform="translate(-1.453)"><circle class="c" cx="21.5" cy="21.5" r="21.5" transform="translate(1105.313 1994.807)"/><path class="d" d="M58.229,28.681H53.716V17.092a.866.866,0,0,0-1.731,0V28.681H50.131V1.731h1.854V13.32a.866.866,0,0,0,1.731,0V.866A.866.866,0,0,0,52.851,0H49.266A.866.866,0,0,0,48.4.866v2.72H36.718a.866.866,0,0,0-.866.866v2.72H25.963q-1.166.242-.72,1.346l3.265,4.9-3.265,4.9q-.446,1.1.72,1.346h14.3a.866.866,0,0,0,.866-.866V16.072H48.4V28.681H43.888a.866.866,0,0,0-.866.866v6.3H38.6a.866.866,0,1,0,0,1.731h4.418v19.78H30.413V37.582h4.418a.866.866,0,1,0,0-1.731H29.548a.866.866,0,0,0-.866.866v6.305H15.207a.866.866,0,0,0-.866.866v6.3H9.387a.866.866,0,1,0,0,1.731h4.955v5.44H1.732v-5.44H5.614a.866.866,0,1,0,0-1.731H.867A.866.866,0,0,0,0,51.057v7.171a.866.866,0,0,0,.866.866H58.229a.866.866,0,0,0,.866-.866V29.547a.866.866,0,0,0-.866-.866ZM39.4,17.925H27.58l2.688-4.032a.865.865,0,0,0,0-.96L27.58,8.9h8.272v6.3a.866.866,0,0,0,.866.866H39.4Zm-1.814-3.585V5.317H48.4v9.024ZM16.073,44.753H28.682V57.362H16.073Zm41.29,12.609H44.754V30.412H57.363Z" transform="translate(1084.452 2000.714)"/></g></g></svg>