<svg xmlns="http://www.w3.org/2000/svg" xmlns:xlink="http://www.w3.org/1999/xlink" width="66" height="68" viewBox="0 0 66 68"><defs><style>.a{fill:#fff;stroke:#707070;}.b{clip-path:url(#a);}.c{fill:#fff5c1;}.d,.e{fill:#465159;}.f,.g{stroke:none;}.g{fill:#fff;}</style><clipPath id="a"><rect class="a" width="66" height="68" transform="translate(875 1992)"/></clipPath></defs><g class="b" transform="translate(-875 -1992)"><circle class="c" cx="21.5" cy="21.5" r="21.5" transform="translate(896.7 1995.159)"/><g transform="translate(875 1994.808)"><g class="d" transform="translate(-16 -16)"><path class="f" d="M 67.76015472412109 80.55024719238281 L 64.52515411376953 80.55024719238281 C 64.11370086669922 80.55027770996094 63.75680160522461 80.28581237792969 63.63703155517578 79.89219665527344 L 56.99287033081055 58.06145477294922 L 56.86709976196289 57.64819717407227 L 56.70968246459961 58.05046463012695 L 48.13624954223633 79.96010589599609 C 47.99605178833008 80.31861877441406 47.65671157836914 80.55024719238281 47.27175140380859 80.55024719238281 L 44.03673934936523 80.55024719238281 C 43.75091934204102 80.55024719238281 43.48540115356445 80.42161560058594 43.30825042724609 80.19734191894531 C 43.13106918334961 79.97307586669922 43.06743240356445 79.68498229980469 43.13362121582031 79.40694427490234 L 48.49600982666016 56.88502502441406 L 48.50009155273438 56.86789703369141 L 48.50009155273438 56.85028457641602 L 48.50009155273438 56.34526443481445 L 48.50009155273438 55.98313522338867 L 48.24402236938477 56.23919677734375 L 41.45815277099609 63.02505493164062 C 41.28281021118164 63.20037460327148 41.04965209960938 63.29693603515625 40.80165100097656 63.29693603515625 C 40.7105712890625 63.29693603515625 40.62009048461914 63.28351593017578 40.53273010253906 63.25707626342773 C 40.20445251464844 63.15768432617188 39.95872116088867 62.88700485229492 39.89141082763672 62.55067443847656 L 39.50461959838867 60.61661529541016 C 39.044189453125 58.34044647216797 37.80175018310547 56.27637481689453 36.00609970092773 54.80428695678711 C 34.21044158935547 53.33219528198242 31.94279098510742 52.5186767578125 29.62085151672363 52.51357650756836 C 27.81760025024414 52.51355361938477 26.0992317199707 51.73835372924805 24.90602111816406 50.38674545288086 C 23.71282196044922 49.03513717651367 23.15671157836914 47.23390579223633 23.38029098510742 45.44488525390625 C 23.55319023132324 44.09666442871094 23.08062171936035 42.71926498413086 22.11609077453613 41.76081466674805 L 16.42192077636719 36.06671524047852 C 16.21865081787109 35.86343383789062 16.12007141113281 35.57196426391602 16.1582202911377 35.28703689575195 C 16.19637107849121 35.00209426879883 16.36815071105957 34.7468147277832 16.61774063110352 34.60416412353516 L 19.18234062194824 33.13871383666992 C 21.03409194946289 32.08494567871094 23.13944053649902 31.52788543701172 25.27056121826172 31.52788543701172 C 26.99595069885254 31.52788543701172 28.6710319519043 31.8818359375 30.24927139282227 32.57990646362305 C 31.58927154541016 33.17272567749023 33.01164245605469 33.47330474853516 34.47687149047852 33.47328567504883 C 35.85747146606445 33.47327423095703 37.2041015625 33.20513534545898 38.47935104370117 32.67631530761719 L 46.90605926513672 29.16524505615234 L 52.98094940185547 26.56172561645508 L 53.11128997802734 26.5058650970459 L 53.06283187866211 26.37259483337402 C 52.89694976806641 25.91638565063477 52.81304168701172 25.43892478942871 52.81344223022461 24.95347595214844 L 52.81343078613281 20.31357574462891 C 52.81343078613281 20.00247573852539 52.96797180175781 19.71373558044434 53.22682952880859 19.54117584228516 L 55.83626174926758 17.8015251159668 C 56.39850997924805 17.42669486999512 57.05295181274414 17.22857475280762 57.72883224487305 17.22857475280762 C 58.28835296630859 17.22857475280762 58.84493255615234 17.36816596984863 59.33840179443359 17.63225555419922 C 60.44975280761719 18.22705459594727 61.14013290405273 19.37956619262695 61.14013290405273 20.6400260925293 L 61.14013290405273 24.3609447479248 L 61.14013290405273 24.54793548583984 L 61.32266998291016 24.50737571716309 L 69.45226287841797 22.70078468322754 L 69.48886871337891 22.69264602661133 L 69.51734161376953 22.66824531555176 L 76.86099243164062 16.37370491027832 C 77.02914428710938 16.22963523864746 77.24362945556641 16.15027618408203 77.46494293212891 16.15027618408203 C 77.71302795410156 16.15027618408203 77.94624328613281 16.2468147277832 78.12162017822266 16.42211532592773 L 80.27825927734375 18.57875442504883 C 80.590087890625 18.89058494567871 80.63887023925781 19.38324546813965 80.39424896240234 19.75017547607422 L 73.92422485351562 29.45516586303711 C 73.83479309082031 29.58938598632812 73.71127319335938 29.69842529296875 73.56700897216797 29.77053451538086 L 67.49648284912109 32.80586624145508 L 67.44091033935547 32.83364486694336 L 67.4212646484375 32.89259719848633 L 63.33206176757812 45.1601448059082 L 63.32052993774414 45.1947135925293 L 63.3261604309082 45.23073577880859 L 68.67739105224609 79.47855377197266 C 68.71931457519531 79.74691772460938 68.64205932617188 80.01918792724609 68.46543884277344 80.22555541992188 C 68.288818359375 80.43189239501953 68.03175354003906 80.55024719238281 67.76015472412109 80.55024719238281 Z M 56.97653198242188 53.89187622070312 C 56.98858261108398 53.89187622070312 57.00067138671875 53.89211654663086 57.01279067993164 53.89258575439453 C 57.4074821472168 53.90789413452148 57.74991226196289 54.17207717895508 57.86490249633789 54.54996490478516 L 65.18064880371094 78.58725738525391 L 65.2130126953125 78.69358825683594 L 65.32415008544922 78.69358825683594 L 66.50022888183594 78.69358825683594 L 66.67549133300781 78.69358825683594 L 66.64842987060547 78.52042388916016 L 61.59371185302734 46.17041397094727 L 61.57389068603516 46.04357528686523 L 61.44551086425781 46.04357528686523 L 52.36233139038086 46.04357528686523 L 52.25422286987305 46.04357528686523 L 52.22003173828125 46.14614486694336 L 50.36447143554688 51.7127571105957 L 50.35676956176758 51.73584365844727 L 50.35676956176758 51.76018524169922 L 50.35676956176758 56.97690582275391 C 50.35674285888672 57.04923629760742 50.34825134277344 57.1215934753418 50.33154296875 57.19192504882812 L 45.25606155395508 78.50884246826172 L 45.21207046508789 78.69358825683594 L 45.40198135375977 78.69358825683594 L 46.53573226928711 78.69358825683594 L 46.63811111450195 78.69358825683594 L 46.67542266845703 78.59824371337891 L 56.11231231689453 54.48197555541992 C 56.2525520324707 54.12350463867188 56.59178161621094 53.89187622070312 56.97653198242188 53.89187622070312 Z M 25.27017021179199 33.38369369506836 C 23.46180152893066 33.38369369506836 21.6752815246582 33.85639572143555 20.1037712097168 34.75070571899414 L 18.76471138000488 35.5157470703125 L 18.59418106079102 35.61317443847656 L 18.73305130004883 35.75205612182617 L 23.4293212890625 40.44831466674805 C 24.79766082763672 41.80808639526367 25.46796035766602 43.76174545288086 25.22269058227539 45.67468643188477 C 25.06506156921387 46.93598556518555 25.45699119567871 48.2054443359375 26.29793167114258 49.15803527832031 C 27.13888168334961 50.1105842590332 28.34991073608398 50.65690612792969 29.62051200866699 50.65690612792969 C 32.36242294311523 50.66286468505859 35.04223251342773 51.62154388427734 37.16596984863281 53.35635375976562 C 39.28971099853516 55.09116363525391 40.76391220092773 57.5257568359375 41.31700134277344 60.21162414550781 L 41.37314987182617 60.48427581787109 L 41.56999206542969 60.28744506835938 L 48.45616149902344 53.40128707885742 L 48.50009155273438 53.35734558105469 L 48.50009155273438 53.29521560668945 L 48.50009155273438 51.58523559570312 C 48.50009918212891 51.48526382446289 48.51613235473633 51.386474609375 48.54775238037109 51.29160690307617 L 49.28504180908203 49.07972717285156 L 49.33248138427734 48.93742370605469 L 49.19017028808594 48.88999557495117 L 40.50815200805664 45.99598693847656 C 40.12849044799805 45.8693962097168 39.8734016418457 45.51544570922852 39.8734016418457 45.115234375 L 39.8734016418457 39.72357559204102 C 39.8734016418457 39.53969573974609 39.92732238769531 39.36163711547852 40.02933120727539 39.20865631103516 L 44.52381134033203 32.46695709228516 L 44.79862213134766 32.05473709106445 L 44.34131240844727 32.24528503417969 L 39.19375228881836 34.39010620117188 C 37.6910514831543 35.01312637329102 36.10406112670898 35.32907485961914 34.47710037231445 35.32907485961914 C 32.75025939941406 35.32907485961914 31.07395172119141 34.97488403320312 29.49474143981934 34.27633666992188 C 28.15556144714355 33.68402481079102 26.73421096801758 33.38369369506836 25.27017021179199 33.38369369506836 Z M 48.64913177490234 44.43631362915039 L 48.57669067382812 44.58119583129883 L 47.73384094238281 46.26691436767578 L 47.65649032592773 46.42160415649414 L 47.82057189941406 46.47629547119141 L 49.77733993530273 47.12849426269531 L 49.91963958740234 47.17592620849609 L 49.96707153320312 47.03362655639648 L 50.43083190917969 45.642333984375 L 50.46887969970703 45.5281867980957 L 50.3657112121582 45.46628570556641 L 48.78803253173828 44.51965713500977 L 48.64913177490234 44.43631362915039 Z M 48.56938171386719 30.4723949432373 L 48.47603225708008 30.51240539550781 L 47.93210220336914 30.74552536010742 L 47.89112091064453 30.76308441162109 L 47.86638259887695 30.80018615722656 L 41.7552604675293 39.96681594848633 L 41.73007202148438 40.00460433959961 L 41.73007202148438 40.05002593994141 L 41.73007202148438 44.33808517456055 L 41.73007202148438 44.44620513916016 L 41.8326416015625 44.48038482666016 L 45.75378036499023 45.7873649597168 L 45.87720108032227 45.82850646972656 L 45.93537139892578 45.7121467590332 L 46.99020004272461 43.60247421264648 L 47.05232238769531 43.47823715209961 L 46.93321228027344 43.40677642822266 L 45.7158203125 42.67634582519531 C 45.49082946777344 42.54134368896484 45.33286285400391 42.31623458862305 45.28242111206055 42.05873489379883 C 45.23197937011719 41.80124664306641 45.29334259033203 41.53317642211914 45.45075988769531 41.3232536315918 L 48.68577194213867 37.00992584228516 C 48.86017990112305 36.77736663818359 49.13777160644531 36.63852691650391 49.42835235595703 36.63852691650391 C 49.48471069335938 36.63852691650391 49.54146957397461 36.64372634887695 49.59704971313477 36.65399551391602 C 49.94615173339844 36.71846389770508 50.22357940673828 36.97057342529297 50.32107162475586 37.31192398071289 L 52.25423049926758 44.0781135559082 L 52.28531265258789 44.18690490722656 L 52.39846038818359 44.18690490722656 L 61.59123992919922 44.18690490722656 L 61.6993522644043 44.18690490722656 L 61.73353958129883 44.08433532714844 L 65.80113220214844 31.88161468505859 C 65.87953186035156 31.64637565612793 66.04483795166016 31.45578575134277 66.26663208007812 31.34495544433594 L 72.48052215576172 28.23800468444824 L 72.51615142822266 28.22019577026367 L 72.53825378417969 28.18705558776855 L 75.33971405029297 23.98488616943359 L 75.40792083740234 23.88256454467773 L 75.32096862792969 23.79560470581055 L 73.45034027099609 21.92497444152832 L 73.35211944580078 21.82675552368164 L 73.24665069580078 21.91715621948242 L 70.52101135253906 24.2534351348877 C 70.40570831298828 24.35221481323242 70.26640319824219 24.42186546325684 70.11817932128906 24.45480537414551 L 66.64926910400391 25.22567558288574 L 66.53181457519531 25.25177574157715 L 66.53181457519531 25.37210464477539 L 66.53181457519531 28.94023513793945 C 66.53181457519531 29.29413604736328 66.33517456054688 29.61228561401367 66.01863098144531 29.77053451538086 L 63.86196136474609 30.84888458251953 C 63.7317008972168 30.91408538818359 63.59217071533203 30.94712448120117 63.44718170166016 30.94712448120117 C 63.15624237060547 30.94712448120117 62.87849044799805 30.80823516845703 62.70418167114258 30.57560539245605 L 60.45088195800781 27.57119560241699 L 60.33509063720703 27.41680526733398 L 60.21405029296875 27.56711578369141 C 59.42089080810547 28.55206489562988 58.24024200439453 29.1169548034668 56.97483062744141 29.1169548034668 C 56.34255218505859 29.1169548034668 55.73262023925781 28.9765453338623 55.16197204589844 28.69961547851562 L 54.87308120727539 28.55942535400391 L 54.95096206665039 28.87094497680664 L 55.72074127197266 31.9500560760498 C 55.82707214355469 32.37543487548828 55.62744140625 32.80946350097656 55.23527145385742 33.00553512573242 L 53.07859039306641 34.0838737487793 C 52.95030212402344 34.14802551269531 52.80684280395508 34.18193435668945 52.66370010375977 34.18193435668945 C 52.41556930541992 34.18193435668945 52.1823616027832 34.08537673950195 52.00701141357422 33.9100456237793 L 48.64118957519531 30.54420471191406 L 48.56938171386719 30.4723949432373 Z M 49.04943084716797 39.6195068359375 L 48.86817932128906 39.86116409301758 L 47.65347290039062 41.48077392578125 L 47.55368041992188 41.61383438110352 L 47.6963005065918 41.69940567016602 L 49.72075271606445 42.91397476196289 L 50.04651260375977 43.10941696166992 L 49.9421501159668 42.74413681030273 L 49.13241195678711 39.90995407104492 L 49.04943084716797 39.6195068359375 Z M 52.96639251708984 28.58806610107422 L 52.80450057983398 28.65744590759277 L 50.61109161376953 29.59743499755859 L 50.40745162963867 29.68470573425293 L 50.56410980224609 29.84137535095215 L 52.77028274536133 32.04753494262695 L 52.84672164916992 32.12397384643555 L 52.94342041015625 32.07563400268555 L 53.63127136230469 31.7318058013916 L 53.73891067504883 31.67800521850586 L 53.70972061157227 31.56125450134277 L 53.00910949707031 28.75893592834473 L 52.96639251708984 28.58806610107422 Z M 64.67514038085938 25.66436576843262 L 64.49259948730469 25.70492553710938 L 62.04474258422852 26.2488956451416 L 61.81777954101562 26.29933547973633 L 61.95727920532227 26.48532485961914 L 63.64950180053711 28.7415657043457 L 63.724609375 28.84170532226562 L 63.83658218383789 28.78573608398438 L 64.59222412109375 28.40795516967773 L 64.67514038085938 28.36649513244629 L 64.67514038085938 28.27378463745117 L 64.67514038085938 25.85135459899902 L 64.67514038085938 25.66436576843262 Z M 54.67011260986328 22.64669609069824 L 54.67011260986328 22.79669570922852 L 54.67011260986328 24.95335578918457 C 54.67011260986328 26.22525596618652 55.70487976074219 27.26002502441406 56.97677993774414 27.26002502441406 C 58.24869155883789 27.26002502441406 59.28346252441406 26.22525596618652 59.28346252441406 24.95335578918457 L 59.28346252441406 22.79669570922852 L 59.28346252441406 22.64669609069824 L 59.13346099853516 22.64669609069824 L 54.82011032104492 22.64669609069824 L 54.67011260986328 22.64669609069824 Z M 77.41663360595703 18.34290504455566 L 77.31116485595703 18.43330574035645 L 74.88899993896484 20.50944519042969 L 74.76601409912109 20.61486434936523 L 74.88055419921875 20.72940444946289 L 76.328857421875 22.17769622802734 L 76.45824432373047 22.30706596374512 L 76.55973815917969 22.15482521057129 L 78.35903930664062 19.45586585998535 L 78.42725372314453 19.35355567932129 L 78.34030151367188 19.26660537719727 L 77.51485443115234 18.44113540649414 L 77.41663360595703 18.34290504455566 Z M 57.72863006591797 19.08523559570312 C 57.4206428527832 19.08523559570312 57.12239074707031 19.17551612854004 56.86614990234375 19.34630584716797 L 55.11284255981445 20.51521492004395 L 54.70064926147461 20.79002571105957 L 55.19605255126953 20.79002571105957 L 59.13346099853516 20.79002571105957 L 59.28347015380859 20.79002571105957 L 59.28346252441406 20.6400146484375 C 59.28340148925781 20.0655460357666 58.96873092651367 19.54028511047363 58.46224212646484 19.26922607421875 C 58.23733139038086 19.14885520935059 57.98366165161133 19.08523559570312 57.72863006591797 19.08523559570312 Z"/><path class="g" d="M 77.46482849121094 16.30027770996094 L 77.46485137939453 16.30027770996094 C 77.27937316894531 16.30027770996094 77.09956359863281 16.36680603027344 76.95861053466797 16.48758697509766 L 69.55799865722656 22.83094787597656 L 60.99013137817383 24.73493194580078 L 60.99013137817383 20.64002227783203 C 60.99013137817383 19.43497467041016 60.33010101318359 18.33313751220703 59.26763153076172 17.76450347900391 C 58.79585266113281 17.51202392578125 58.26374053955078 17.37857818603516 57.72883224487305 17.37857818603516 C 57.08264923095703 17.37857818603516 56.45698165893555 17.56798553466797 55.91946029663086 17.92632293701172 L 53.31002044677734 19.66599273681641 C 53.09300231933594 19.81065368652344 52.96343231201172 20.05274200439453 52.96343231201172 20.31357574462891 L 52.96343994140625 24.95360565185547 C 52.96306228637695 25.42147827148438 53.04393005371094 25.88164520263672 53.20380020141602 26.32132720947266 L 53.30072021484375 26.58786773681641 L 46.96375274658203 29.30370330810547 L 38.53681182861328 32.81487655639648 C 37.24322128295898 33.35129547119141 35.87726211547852 33.62328720092773 34.47687149047852 33.62328720092773 C 32.99056243896484 33.62328720092773 31.54776763916016 33.31838607788086 30.18859100341797 32.71707534790039 C 28.62960052490234 32.02751159667969 26.97495269775391 31.67788696289062 25.27058410644531 31.67788696289062 C 23.16542053222656 31.67788696289062 21.08570861816406 32.22815704345703 19.25675964355469 33.26894378662109 L 16.69218444824219 34.73439407348633 C 16.48291015625 34.85400390625 16.33888244628906 35.06803512573242 16.30689239501953 35.30692672729492 C 16.27490997314453 35.54583358764648 16.35755920410156 35.79022598266602 16.52798461914062 35.96065521240234 L 22.22180938720703 41.65440368652344 C 23.21919250488281 42.64551544189453 23.70786285400391 44.06982421875 23.52912139892578 45.46348571777344 C 23.31089019775391 47.20983505249023 23.85372924804688 48.96810531616211 25.01847076416016 50.2874755859375 C 26.18321990966797 51.60684585571289 27.86060333251953 52.36355590820312 29.62117004394531 52.36357498168945 C 31.97756958007812 52.36874389648438 34.27889251708984 53.19434356689453 36.10119247436523 54.68828582763672 C 37.92350006103516 56.18221664428711 39.18437957763672 58.27692413330078 39.65170288085938 60.58719635009766 L 40.03850173950195 62.52123641967773 C 40.09493255615234 62.80322647094727 40.30096054077148 63.03017425537109 40.57619094848633 63.11350631713867 C 40.64945983886719 63.13568496704102 40.72531127929688 63.14693450927734 40.80165100097656 63.14693450927734 C 41.00959014892578 63.14693450927734 41.20508193969727 63.06597518920898 41.35209274291992 62.91899490356445 L 48.65008926391602 55.62100601196289 L 48.65008926391602 56.88550567626953 L 43.279541015625 79.44167327880859 C 43.22405242919922 79.67478942871094 43.27741241455078 79.91632080078125 43.42596054077148 80.10437774658203 C 43.57448196411133 80.29240417480469 43.79710006713867 80.40024566650391 44.03673934936523 80.40023803710938 L 47.27177047729492 80.40023803710938 C 47.59452056884766 80.40023803710938 47.87900924682617 80.20603942871094 47.9965705871582 79.90544128417969 L 56.88482284545898 57.19125366210938 L 63.78054046630859 79.84852600097656 C 63.88095092773438 80.17854309082031 64.18017578125 80.4002685546875 64.525146484375 80.40023803710938 L 67.76017761230469 80.40023803710938 C 67.98788452148438 80.40023803710938 68.20339965820312 80.30101776123047 68.35147094726562 80.12802124023438 C 68.49955749511719 79.95498657226562 68.5643310546875 79.72669982910156 68.52919006347656 79.50169372558594 L 63.16670227050781 45.18186569213867 L 67.31825256347656 32.72727584838867 L 73.49993896484375 29.63636779785156 C 73.62088012695312 29.57590484619141 73.72443389892578 29.4844970703125 73.79942321777344 29.37196350097656 L 80.26943969726562 19.66696166992188 C 80.47454071044922 19.35932159423828 80.43363952636719 18.94626617431641 80.17220306396484 18.684814453125 L 78.01557159423828 16.52820587158203 C 77.86854553222656 16.38123321533203 77.67295074462891 16.30029296875 77.46482849121094 16.30027770996094 M 76.48155975341797 22.54251861572266 L 74.54541015625 20.60639190673828 L 77.42446136474609 18.13862609863281 L 78.62026977539062 19.33444213867188 L 76.48155975341797 22.54251861572266 M 59.43349075317383 20.94002532958984 L 54.20524978637695 20.94002532958984 L 56.78295135498047 19.22149658203125 C 57.06389999389648 19.03422546386719 57.39091110229492 18.93523406982422 57.72863006591797 18.93523406982422 C 58.00825119018555 18.93523406982422 58.28639984130859 19.00499725341797 58.53302001953125 19.13697814941406 C 59.08837127685547 19.43418884277344 59.43339920043945 20.01011657714844 59.4334602355957 20.63999176025391 L 59.43349075317383 20.94002532958984 M 61.80746078491211 44.33690643310547 L 52.17217254638672 44.33690643310547 L 50.17683029174805 37.35311508178711 C 50.09510040283203 37.06691360473633 49.86249923706055 36.85554504394531 49.5698127746582 36.80149459838867 C 49.52316284179688 36.79288482666016 49.47555923461914 36.78851699829102 49.42832946777344 36.78851699829102 C 49.18473052978516 36.78851699829102 48.95199966430664 36.90492630004883 48.80577087402344 37.09992599487305 L 45.57077026367188 41.41325378417969 C 45.43878173828125 41.58925628662109 45.38733291625977 41.81401443481445 45.42962265014648 42.02990341186523 C 45.4719123840332 42.24578475952148 45.60436248779297 42.43452453613281 45.79299926757812 42.54771423339844 L 47.24861145019531 43.42107391357422 L 45.95318222045898 46.01194381713867 L 41.58007049560547 44.55431365966797 L 41.58007049560547 39.95919418334961 L 47.79104232788086 30.64278411865234 L 48.60363006591797 30.29452514648438 L 52.11308288574219 33.80397415161133 C 52.26008224487305 33.95097351074219 52.45563125610352 34.03193664550781 52.66370010375977 34.03193664550781 C 52.78538131713867 34.03193664550781 52.90238952636719 34.00427627563477 53.01151275634766 33.94970703125 L 55.16819000244141 32.87137603759766 C 55.49699020385742 32.70697402954102 55.66437149047852 32.34308624267578 55.57522201538086 31.98644256591797 L 54.64968109130859 28.28428649902344 L 55.22746276855469 28.56466674804688 C 55.77753067016602 28.83160400390625 56.36543273925781 28.96695709228516 56.97481918334961 28.96695709228516 C 58.19460296630859 28.96695709228516 59.33267211914062 28.42244720458984 60.09722137451172 27.47303771972656 L 60.33930206298828 27.17242431640625 L 62.82422256469727 30.48565673828125 C 62.97035217285156 30.68068695068359 63.20323181152344 30.79712677001953 63.44717025756836 30.79712677001953 C 63.56864166259766 30.79712677001953 63.68558120727539 30.76941680908203 63.79487991333008 30.71470642089844 L 65.95156097412109 29.63637542724609 C 66.21694946289062 29.50369262695312 66.38181304931641 29.23694610595703 66.38181304931641 28.94023895263672 L 66.38181304931641 25.13145446777344 L 70.08560943603516 24.30838775634766 C 70.20993041992188 24.28074645996094 70.32675170898438 24.22234344482422 70.42339324951172 24.13954162597656 L 73.35996246337891 21.62247467041016 L 75.60092926025391 23.86345672607422 L 72.61885070800781 28.3365478515625 L 66.33369445800781 31.4791259765625 C 66.14775085449219 31.57204437255859 66.00916290283203 31.73182678222656 65.94343566894531 31.92905426025391 L 61.80746078491211 44.33690643310547 M 56.97677993774414 27.41002655029297 C 55.62216949462891 27.41002655029297 54.52011108398438 26.30796813964844 54.52011108398438 24.95335388183594 L 54.52011108398438 22.49669647216797 L 59.4334602355957 22.49669647216797 L 59.4334602355957 24.95335388183594 C 59.4334602355957 26.30796813964844 58.33140182495117 27.41002655029297 56.97677993774414 27.41002655029297 M 63.67972183227539 29.03185272216797 L 61.55829238891602 26.20334625244141 L 64.82514190673828 25.47735595703125 L 64.82514190673828 28.45920562744141 L 63.67972183227539 29.03185272216797 M 52.81709289550781 32.30646514892578 L 50.14471054077148 29.63410186767578 L 53.06919097900391 28.38081359863281 L 53.91361999511719 31.75838470458984 L 52.81709289550781 32.30646514892578 M 41.28238296508789 60.78717422485352 L 41.17008972167969 60.24187469482422 C 40.62393188476562 57.58966445922852 39.1682014465332 55.18559646606445 37.07107162475586 53.47252655029297 C 34.97394943237305 51.75945663452148 32.32772064208984 50.81278610229492 29.62051391601562 50.80690383911133 C 28.30690002441406 50.80690383911133 27.05487823486328 50.24209594726562 26.18547821044922 49.25730514526367 C 25.31607818603516 48.27248382568359 24.91088104248047 46.96006393432617 25.07391357421875 45.65561676025391 C 25.31327819824219 43.78859710693359 24.65907287597656 41.88184356689453 23.32324981689453 40.55437469482422 L 18.34922790527344 35.58036422729492 L 20.02957916259766 34.62033462524414 C 21.62351226806641 33.71327590942383 23.43568420410156 33.2337760925293 25.27016448974609 33.23369598388672 C 26.75505828857422 33.23362350463867 28.19683074951172 33.53826522827148 29.555419921875 34.13915634155273 C 31.11539459228516 34.82919692993164 32.77128219604492 35.1790771484375 34.47709274291992 35.1790771484375 C 36.0842399597168 35.1790771484375 37.65190124511719 34.86697387695312 39.13606262207031 34.25163650512695 L 45.1982307434082 31.72573852539062 L 40.15413284301758 39.29186630249023 C 40.06859970092773 39.42013549804688 40.02339172363281 39.56941604614258 40.02339935302734 39.72357559204102 L 40.02339935302734 45.115234375 C 40.02339935302734 45.45078659057617 40.23728179931641 45.7475471496582 40.55559158325195 45.85368347167969 L 49.52221298217773 48.84255599975586 L 48.6900520324707 51.33903503417969 C 48.66353988647461 51.41857528686523 48.65010070800781 51.50141525268555 48.65008926391602 51.58523559570312 L 48.65008926391602 53.41947555541992 L 41.28238296508789 60.78717422485352 M 50.29510116577148 43.43347549438477 L 47.33388137817383 41.65689468383789 L 49.11067199707031 39.28784561157227 L 50.29510116577148 43.43347549438477 M 50.01451110839844 47.36566543579102 L 47.44498062133789 46.50922393798828 L 48.58740234375 44.22434616088867 L 50.64923095703125 45.46147537231445 L 50.01451110839844 47.36566543579102 M 66.85075378417969 78.84357452392578 L 65.10186767578125 78.84357452392578 L 57.72138214111328 54.59362411499023 C 57.62498092651367 54.27679443359375 57.337890625 54.05530548095703 57.00687026977539 54.04246520996094 C 56.67218780517578 54.02919769287109 56.37324905395508 54.2266845703125 56.25199127197266 54.53663635253906 L 46.7404899597168 78.84357452392578 L 45.02215957641602 78.84357452392578 L 50.18560028076172 57.15723419189453 C 50.19963073730469 57.09824371337891 50.20675277709961 57.03753662109375 50.20677185058594 56.97690582275391 L 50.20677185058594 51.71150588989258 L 52.14610290527344 45.89357376098633 L 61.7022705078125 45.89357376098633 L 66.85075378417969 78.84357452392578 M 77.46493530273438 16.00027465820312 C 77.74178314208984 16.00029754638672 78.01792907714844 16.10638427734375 78.2276611328125 16.31602478027344 L 80.38433074951172 18.47268676757812 C 80.74778747558594 18.83616638183594 80.80419158935547 19.40567779541016 80.51905822753906 19.8333740234375 L 74.04902648925781 29.53837585449219 C 73.94496917724609 29.69453430175781 73.80192565917969 29.82080841064453 73.63407135009766 29.90470886230469 L 67.56356048583984 32.94002532958984 L 63.47436141967773 45.20757675170898 L 68.82559204101562 79.45538330078125 C 68.87422180175781 79.76669311523438 68.78427886962891 80.08368682861328 68.57939910888672 80.32308959960938 C 68.37451171875 80.56245422363281 68.07521057128906 80.70024108886719 67.76014709472656 80.70023345947266 L 64.525146484375 80.70023345947266 C 64.05052185058594 80.70027160644531 63.63169097900391 80.38992309570312 63.4935302734375 79.93585205078125 L 56.84937286376953 58.10512542724609 L 48.27593994140625 80.01476287841797 C 48.11426162719727 80.42816162109375 47.71573257446289 80.70024108886719 47.27175140380859 80.70023345947266 L 44.03673934936523 80.70023345947266 C 43.70682144165039 80.70024108886719 43.39504241943359 80.54922485351562 43.1905403137207 80.29032897949219 C 42.98603057861328 80.03143310546875 42.91128921508789 79.69315338134766 42.98770141601562 79.3721923828125 L 48.35009002685547 56.85028457641602 L 48.35009002685547 56.34526443481445 L 41.5642204284668 63.13112640380859 C 41.28300094604492 63.41229248046875 40.86984634399414 63.51586151123047 40.48926162719727 63.400634765625 C 40.10865020751953 63.28539657592773 39.82236099243164 62.97004699707031 39.74433135986328 62.58010482788086 L 39.3575325012207 60.64602661132812 C 38.4197998046875 56.0102653503418 34.35018157958984 52.67395401000977 29.62051391601562 52.66357421875 C 27.77370452880859 52.66355514526367 26.01580810546875 51.87051391601562 24.79357147216797 50.48601531982422 C 23.57133483886719 49.10151672363281 23.00243377685547 47.25884628295898 23.23143768310547 45.42628479003906 C 23.399658203125 44.1146240234375 22.94837951660156 42.79933547973633 22.01035308837891 41.86720657348633 L 16.31584930419922 36.17278671264648 C 16.07820129394531 35.93511581420898 15.96495056152344 35.60024642944336 16.00954437255859 35.26712417602539 C 16.05415344238281 34.93399429321289 16.25151062011719 34.64071655273438 16.54331207275391 34.47393417358398 L 19.10791778564453 33.00847625732422 C 22.54111480712891 31.05477142333984 26.69738006591797 30.84485626220703 30.30994415283203 32.44271850585938 C 32.88706207275391 33.58285140991211 35.81878662109375 33.61720275878906 38.42189025878906 32.53775787353516 L 46.84836959838867 29.02678680419922 L 52.92185974121094 26.42384338378906 C 52.75049209594727 25.95254516601562 52.66303253173828 25.45484161376953 52.6634407043457 24.95335388183594 L 52.66342926025391 20.31357574462891 C 52.66342926025391 19.95302581787109 52.84363174438477 19.6163330078125 53.14363098144531 19.41636657714844 L 55.7530517578125 17.67671203613281 C 56.84593200683594 16.94815063476562 58.2510986328125 16.88022613525391 59.4091796875 17.50000762939453 C 60.56721115112305 18.11977386474609 61.29013061523438 19.32662200927734 61.29013061523438 20.64002227783203 L 61.29013061523438 24.36094665527344 L 69.41970825195312 22.55435180664062 L 76.76336669921875 16.25980377197266 C 76.96604919433594 16.08615112304688 77.21576690673828 16.00025177001953 77.46493530273438 16.00027465820312 Z M 76.43492889404297 22.07162475585938 L 78.23423004150391 19.37266540527344 L 77.40876770019531 18.54719543457031 L 74.98661804199219 20.62333679199219 L 76.43492889404297 22.07162475585938 Z M 59.13346099853516 20.64002227783203 C 59.1334114074707 20.12193298339844 58.84823989868164 19.64593505859375 58.39146041870117 19.40147399902344 C 57.93468856811523 19.15701293945312 57.38043594360352 19.18378448486328 56.9493408203125 19.47112274169922 L 55.19605255126953 20.64002227783203 L 59.13346099853516 20.64002227783203 Z M 61.59123229980469 44.03690719604492 L 65.65882873535156 31.83418273925781 C 65.74923706054688 31.56287384033203 65.94377136230469 31.33860778808594 66.1995849609375 31.21076202392578 L 72.41342926025391 28.10384368896484 L 75.21488952636719 23.90167236328125 L 73.34426879882812 22.03104400634766 L 70.61862945556641 24.36732482910156 C 70.48420715332031 24.48248291015625 70.32350921630859 24.56281280517578 70.15072631835938 24.60123443603516 L 66.68180847167969 25.37210845947266 L 66.68180847167969 28.94023895263672 C 66.68180847167969 29.34867858886719 66.45103454589844 29.72206878662109 66.08570861816406 29.90470886230469 L 63.92904281616211 30.9830322265625 C 63.46295166015625 31.21635437011719 62.89668273925781 31.08267211914062 62.58414077758789 30.66554260253906 L 60.33087921142578 27.66119384765625 C 59.07245254516602 29.22390747070312 56.90158081054688 29.71054840087891 55.09648132324219 28.83456420898438 L 55.86626052856445 31.91368865966797 C 55.98883056640625 32.40400695800781 55.75440979003906 32.9136848449707 55.30235290527344 33.13970565795898 L 53.14567184448242 34.21803665161133 C 52.73055648803711 34.42562484741211 52.22916412353516 34.34429550170898 51.90095138549805 34.01611709594727 L 48.53512191772461 30.65027618408203 L 47.99119186401367 30.88339233398438 L 41.88006973266602 40.05002593994141 L 41.88006973266602 44.33808517456055 L 45.80121231079102 45.64506530761719 L 46.85604095458984 43.53539657592773 L 45.63865280151367 42.80496597290039 C 45.37686157226562 42.64787673950195 45.19391250610352 42.38718414306641 45.13521957397461 42.08757400512695 C 45.07653045654297 41.7879638671875 45.14759063720703 41.47751617431641 45.33076095581055 41.2332649230957 L 48.56576919555664 36.91992568969727 C 48.81146621704102 36.59229278564453 49.2215461730957 36.4321174621582 49.62429046630859 36.50648498535156 C 50.02700042724609 36.58085632324219 50.35284042358398 36.87694549560547 50.46530151367188 37.27073669433594 L 52.39846038818359 44.03690719604492 L 61.59123229980469 44.03690719604492 Z M 56.97677993774414 27.11002349853516 C 58.16788101196289 27.11002349853516 59.13346099853516 26.14444732666016 59.13346099853516 24.95335388183594 L 59.13346099853516 22.79669189453125 L 54.82011032104492 22.79669189453125 L 54.82011032104492 24.95335388183594 C 54.82011032104492 26.14444732666016 55.78569030761719 27.11002349853516 56.97677993774414 27.11002349853516 Z M 63.76950073242188 28.65156555175781 L 64.525146484375 28.27378845214844 L 64.525146484375 25.85134887695312 L 62.0772819519043 26.39532470703125 L 63.76950073242188 28.65156555175781 Z M 52.87635040283203 31.94145202636719 L 53.56420135498047 31.59764862060547 L 52.86359024047852 28.79531860351562 L 50.67018127441406 29.73530578613281 L 52.87635040283203 31.94145202636719 Z M 41.46392059326172 60.18136596679688 L 48.35009002685547 53.29521560668945 L 48.35009002685547 51.58523559570312 C 48.35010147094727 51.46931457519531 48.36878967285156 51.35415649414062 48.40544128417969 51.24418640136719 L 49.14274215698242 49.03229522705078 L 40.46072006225586 46.13828659057617 C 40.02038955688477 45.9914665222168 39.7234001159668 45.57937622070312 39.7234001159668 45.115234375 L 39.7234001159668 39.72357559204102 C 39.72339248657227 39.51068496704102 39.78642272949219 39.30256652832031 39.9045295715332 39.12543487548828 L 44.39900207519531 32.38374328613281 L 39.25144195556641 34.52855682373047 C 36.10102462768555 35.83475112915039 32.55300903320312 35.79315185546875 29.43405914306641 34.41351699829102 C 26.44902801513672 33.09323883056641 23.01475524902344 33.2667350769043 20.17796325683594 34.88107681274414 L 18.83911895751953 35.6459846496582 L 23.53537750244141 40.34224700927734 C 24.94579315185547 41.74382400512695 25.62432861328125 43.72152709960938 25.37146759033203 45.69376373291016 C 25.21916198730469 46.91249465942383 25.59750366210938 48.13796615600586 26.41037750244141 49.05876541137695 C 27.22324371337891 49.97951507568359 28.392333984375 50.50690460205078 29.62051391601562 50.50690460205078 C 35.36149215698242 50.51937484741211 40.30599975585938 54.55836486816406 41.46392059326172 60.18136596679688 Z M 49.79792022705078 42.78534698486328 L 48.98818206787109 39.95116424560547 L 47.77347183227539 41.57077407836914 L 49.79792022705078 42.78534698486328 Z M 49.82477188110352 46.9861946105957 L 50.28853225708008 45.59490585327148 L 48.71084976196289 44.64827346801758 L 47.86800003051758 46.3339958190918 L 49.82477188110352 46.9861946105957 Z M 66.50022888183594 78.5435791015625 L 61.44551086425781 46.19357681274414 L 52.36233139038086 46.19357681274414 L 50.50677108764648 51.76018524169922 L 50.50677108764648 56.97690582275391 C 50.50674057006836 57.06100463867188 50.49692153930664 57.14479446411133 50.47747039794922 57.22661590576172 L 45.40198135375977 78.5435791015625 L 46.53573226928711 78.5435791015625 L 55.97262191772461 54.42731475830078 C 56.13992691040039 53.99966049194336 56.55978393554688 53.72483062744141 57.01860046386719 53.74269485473633 C 57.47747039794922 53.76049423217773 57.87472152709961 54.06696701049805 58.00839233398438 54.50629425048828 L 65.32415008544922 78.5435791015625 L 66.50022888183594 78.5435791015625 Z"/></g><rect class="e" width="2.954" height="2.157" transform="translate(1.622 13.082) rotate(-29.744)"/><path class="e" d="M77.256,93.1a12.466,12.466,0,0,0,9.817.115l.887-.369-.83-1.991-.887.37a10.3,10.3,0,0,1-8.112-.1,12.469,12.469,0,0,0-8.106-.686l.532,2.09A10.3,10.3,0,0,1,77.256,93.1Z" transform="translate(-62.744 -80.083)"/></g></g></svg>