<svg xmlns="http://www.w3.org/2000/svg" xmlns:xlink="http://www.w3.org/1999/xlink" width="150" height="110" viewBox="0 0 150 110"><defs><style>.a,.d{fill:#fff;}.a{stroke:#707070;}.b{clip-path:url(#a);}.c{fill:#ccc;}.e{fill:#2f2e41;}.f{fill:#ffb7b7;}.g{fill:#83c124;}.h{fill:#e6e6e6;}.i{fill:#f2f2f2;}.j{fill:#9e616a;}.k{fill:#e4e4e4;}.l{fill:#cacaca;}</style><clipPath id="a"><rect class="a" width="150" height="110" transform="translate(215 697)"/></clipPath></defs><g class="b" transform="translate(-215 -697)"><g transform="translate(224 704.841)"><path class="c" d="M722.8,504.481c-2.106-2.818-5.96-3.5-7.875-2.067s-2.355,5.32-.249,8.138c1.949,2.608,5.48,3.32,7.426,2.343a.244.244,0,0,0,0,.093l.11.542a.247.247,0,0,0,.395.146l.929-.725a.247.247,0,0,0-.046-.418l-.5-.238a.247.247,0,0,0-.055-.017C724.431,510.691,724.752,507.1,722.8,504.481Z" transform="translate(-637.101 -447.167)"/><path class="d" d="M746.8,511.611a4.07,4.07,0,0,1,3.408,4.449c-.023.237.349.236.371,0a4.45,4.45,0,0,0-3.681-4.807C746.661,511.213,746.561,511.571,746.8,511.611Z" transform="translate(-665.704 -455.361)"/><path class="c" d="M746,129.394c1.841-3,1.05-6.83-.988-8.082s-5.814-.224-7.655,2.774c-1.7,2.775-1.061,6.319.566,7.766a.245.245,0,0,0-.087.033l-.463.3a.247.247,0,0,0,.01.421l1.017.6a.247.247,0,0,0,.372-.2l.036-.552a.245.245,0,0,0,0-.057C740.83,133.2,744.291,132.175,746,129.394Z" transform="translate(-656.868 -120.792)"/><path class="d" d="M780.86,147.074a4.07,4.07,0,0,1-2.876,4.811c-.229.067-.091.411.137.345a4.45,4.45,0,0,0,3.108-5.2C781.18,146.8,780.81,146.841,780.86,147.074Z" transform="translate(-692.442 -143.145)"/><g transform="translate(-8.122 -20.522)"><path class="e" d="M355.375,334.557c-.812-1.052-1.959-2.025-2.031-3.322-.066-1.19.821-2.372.447-3.51a3.062,3.062,0,0,0-2.165-1.684,8.414,8.414,0,0,0-5.407.208l.094-.066a3.274,3.274,0,0,0-3.122.732,6.6,6.6,0,0,0-1.708,2.716,21.269,21.269,0,0,1-1.213,2.972,4.36,4.36,0,0,1-2.423,2.112,1.522,1.522,0,0,0,2.146.47,2.712,2.712,0,0,0,.452-.467l1.321-1.606c.453.806-.224,1.918.333,2.664a2.116,2.116,0,0,0,1.3.636,23.491,23.491,0,0,0,11.493-.426,1.121,1.121,0,0,0,.756-.482A.974.974,0,0,0,355.375,334.557Z" transform="translate(-312.073 -293.018)"/><path class="f" d="M437.552,390.241a2.029,2.029,0,0,0-.046.318l-8.321,4.8-2.023-1.164-2.156,2.823,3.38,2.409a1.55,1.55,0,0,0,1.859-.045l8.58-6.769a2.033,2.033,0,1,0-1.274-2.371Z" transform="translate(-383.456 -344.598)"/><path class="g" d="M410.411,409.058l-2.689,3.486a.872.872,0,0,1-1.318.072l-3.045-3.161a2.421,2.421,0,1,1,2.969-3.825l3.818,2.135a.872.872,0,0,1,.265,1.293Z" transform="translate(-364.961 -358.069)"/><path class="f" d="M245.038,600.144h2.375l1.13-9.16h-3.5Z" transform="translate(-203.288 -488.424)"/><path class="e" d="M422.76,758.1h4.677a2.981,2.981,0,0,1,2.98,2.98v.1h-7.657Z" transform="translate(-381.617 -647.152)"/><path class="f" d="M155.147,600.144h2.375l1.13-9.16h-3.5Z" transform="translate(-129.669 -488.424)"/><path class="e" d="M332.87,758.1h4.677a2.98,2.98,0,0,1,2.98,2.98v.1H332.87Z" transform="translate(-307.998 -647.152)"/><ellipse class="f" cx="4.104" cy="4.104" rx="4.104" ry="4.104" transform="translate(31.716 43.428) rotate(-83.735)"/><path class="e" d="M343.6,399.03l2.418,1.2s2.7,4.695,1.152,9.15c-.752,2.163,1.366,9.058,1.366,9.058s3.283,31.232,3.293,40.872c-4.078.627-7.952,1.4-8.146-.535s-2.314-24.84-2.314-24.84-2.916,25.421-5.24,25.809a33.782,33.782,0,0,1-6.973-.194s3.691-37.237,6.209-39.562l.387-1.937-.01-17.388,2.9-1.385Z" transform="translate(-304.956 -353.081)"/><path class="f" d="M347.148,445.109a2.081,2.081,0,0,0,.637-3.126l2.812-18.743-3.674-.176-2.192,18.666a2.092,2.092,0,0,0,2.416,3.38Z" transform="translate(-317.152 -372.763)"/><path class="g" d="M356.214,414.316l-4.394-.277a.872.872,0,0,1-.8-1.052l.916-4.293a2.421,2.421,0,1,1,4.831.319l.368,4.359a.872.872,0,0,1-.924.943Z" transform="translate(-322.849 -359.143)"/><path class="e" d="M378.427,337.7a3.131,3.131,0,0,0-1.278-1.767,5.233,5.233,0,0,0-6.69.407A3.419,3.419,0,0,0,369.426,338a2.031,2.031,0,0,0,.433,1.849l.082.051a.739.739,0,0,1,.463-.77,3.7,3.7,0,0,1,.945-.212,3.474,3.474,0,0,0,2.355-1.662,3.923,3.923,0,0,0,2.248,2.343,4.665,4.665,0,0,0,2.549.235C379.16,339.49,378.587,338.428,378.427,337.7Z" transform="translate(-337.883 -300.574)"/><path class="h" d="M250.53,678.855a4.383,4.383,0,0,0,4.232-.746c1.482-1.244,1.947-3.294,2.325-5.192l1.119-5.614-2.342,1.612a17.055,17.055,0,0,0-4.572,4.036,5.793,5.793,0,0,0-.738,5.79" transform="translate(-240.184 -572.794)"/><path class="i" d="M252.542,707.708a28.166,28.166,0,0,1-.391-6.493,10.214,10.214,0,0,1,1.969-5.354,8.909,8.909,0,0,1,2.285-2.071c.228-.144.439.218.211.361a8.468,8.468,0,0,0-3.349,4.041,13.573,13.573,0,0,0-.721,5.847c.076,1.191.237,2.375.4,3.557a.217.217,0,0,1-.146.258.211.211,0,0,1-.258-.146Z" transform="translate(-241.834 -594.458)"/><path class="h" d="M266.34,735.991a3.227,3.227,0,0,0,2.811,1.452,6.4,6.4,0,0,0,3.678-2l3.159-2.789-2.091-.1a12.547,12.547,0,0,0-4.478.325,4.265,4.265,0,0,0-3.015,3.062" transform="translate(-253.511 -626.186)"/><path class="i" d="M249.892,748.332c1.419-2.511,3.065-5.3,6.006-6.193a6.7,6.7,0,0,1,2.526-.261c.268.023.2.437-.066.413a6.227,6.227,0,0,0-4.031,1.067,10.478,10.478,0,0,0-2.771,2.99c-.459.7-.87,1.427-1.281,2.155C250.143,748.735,249.759,748.568,249.892,748.332Z" transform="translate(-240.017 -633.849)"/><path class="g" d="M517.813,245.106c-.195-4.444-3.739-7.9-6.759-7.767s-6.249,3.884-6.054,8.328c.18,4.114,3.365,7.371,6.093,7.735a.312.312,0,0,0-.067.1l-.271.645a.313.313,0,0,0,.309.434l1.487-.1a.313.313,0,0,0,.25-.47l-.353-.6a.309.309,0,0,0-.045-.057C515.1,252.758,517.994,249.228,517.813,245.106Z" transform="translate(-448.964 -220.654)"/><path class="d" d="M553.108,254.314a5.146,5.146,0,0,1,.395,7.077c-.193.232.2.495.388.264a5.627,5.627,0,0,0-.425-7.645C553.25,253.8,552.891,254.1,553.108,254.314Z" transform="translate(-488.315 -234.253)"/><path class="c" d="M575.248,416.876a7.382,7.382,0,0,1-5.774-3.42c-.175-.279-.4-.587-.282-.931a.612.612,0,0,1,.634-.423.8.8,0,0,1,.083,1.545c-.807.344-1.622-.188-2.28-.613a10.543,10.543,0,0,0-4.963-1.954,4.869,4.869,0,0,0-4.417,2.014c-.163.255.242.49.405.237a4.512,4.512,0,0,1,4.43-1.741,8.614,8.614,0,0,1,2.772.941c.448.232.882.49,1.308.761a8.355,8.355,0,0,0,1.283.735,1.892,1.892,0,0,0,2.26-.424,1.288,1.288,0,0,0-.7-1.944,1.1,1.1,0,0,0-1.29,1.31,3.211,3.211,0,0,0,.6,1.087,7.852,7.852,0,0,0,5.936,3.289c.3.015.3-.454,0-.469Z" transform="translate(-492.549 -362.941)"/></g><g transform="translate(0 -12.281)"><path class="e" d="M860.435,261.572a5.62,5.62,0,0,1,4.454-.255,2.986,2.986,0,0,1,1.9,3.46c-.2.61-.671,1.21-.489,1.827a1.881,1.881,0,0,0,1.107,1.01,4.121,4.121,0,0,1,1.35.785.882.882,0,0,1-.014,1.313c-.143.1-.321.142-.459.243a.73.73,0,0,0-.225.817,1.72,1.72,0,0,0,.551.725c.491.424,1.141.909.988,1.51a1.059,1.059,0,0,1-.715.669,3.548,3.548,0,0,1-1.05.138l-14.5.457a5.5,5.5,0,0,1-1.432-.08,1.7,1.7,0,0,1-1.124-.755,1.574,1.574,0,0,1,.248-1.627,15.43,15.43,0,0,1,1.229-1.3,2.062,2.062,0,0,0,.659-1.56,4,4,0,0,0-.573-1.264,1.258,1.258,0,0,1-.062-1.313c.394-.537,1.339-.488,1.787-.989a2.218,2.218,0,0,0,.306-1.408,3.417,3.417,0,0,1,2.046-2.791,4.029,4.029,0,0,1,3.666.25Z" transform="translate(-750.525 -240.335)"/><path class="j" d="M773.37,443.475v2.371l-9.146,1.128v-3.5Z" transform="translate(-645.804 -364.272)"/><path class="e" d="M991.65,561.141v7.645h-.1a2.976,2.976,0,0,1-2.976-2.976h0v-4.67Z" transform="translate(-861.785 -482.543)"/><path class="j" d="M712.5,454.967l-.582,2.3-9.143-1.151.859-3.392Z" transform="translate(-596.237 -371.73)"/><path class="e" d="M928.825,581.863l-1.877,7.411-.094-.024a2.976,2.976,0,0,1-2.154-3.615h0l1.146-4.527Z" transform="translate(-810.188 -498.648)"/><path class="e" d="M873.5,447.637l.494.514s3.222,2.527.838,9.183l-3.9,11.235,13.072.51-.28,5.134s-18.957,1.054-18.791-2.07.865-14.692.865-14.692l-3.938-3.163.95-5.349Z" transform="translate(-759.577 -390.99)"/><path class="e" d="M841.488,474l-1.514,1.553L834.9,489.509s-.774,3.481.967,4.255,12.94,5.1,12.94,5.1l1.144-4.116-8.63-5.18,4.022-5.282.605-8.325Z" transform="translate(-737.688 -412.254)"/><path class="k" d="M859.683,335.945l12.887-2.577.28,7.071-3.338,7.115.71,8.428L858.672,358l.362-11.083s-3.1-4.376-1.275-8.786Z" transform="translate(-755.802 -298.821)"/><path class="j" d="M947.032,253.052a2.078,2.078,0,0,1-1.952,2.518L932.722,269.9l-2.873-3.487,13.051-12.99a2.089,2.089,0,0,1,4.132-.372Z" transform="translate(-814.415 -232.7)"/><path class="k" d="M923.712,322.7a.93.93,0,0,1-.308.712l-3.475,3.128a2.587,2.587,0,1,1-4-3.284l2.426-4.015a.932.932,0,0,1,1.391-.236l3.627,3A.93.93,0,0,1,923.712,322.7Z" transform="translate(-802.714 -287.061)"/><path class="j" d="M765.608,373.583a2.078,2.078,0,0,1,2.307-2.2l14.369-12.314,2.318,3.879-14.853,10.885a2.089,2.089,0,0,1-4.141-.253Z" transform="translate(-681.935 -319.554)"/><path class="k" d="M836.85,348.743a.931.931,0,0,1,.411-.658l3.905-2.571a2.587,2.587,0,0,1,3.46,3.847l-3,3.605a.932.932,0,0,1-1.411.025l-3.136-3.507A.93.93,0,0,1,836.85,348.743Z" transform="translate(-739.396 -308.082)"/><ellipse class="j" cx="4.75" cy="4.75" rx="4.75" ry="4.75" transform="translate(104.623 24.325)"/><path class="e" d="M880.182,276.756a2.945,2.945,0,0,1-2.59-3.116,2.516,2.516,0,0,1-2.155,2.562c-.688.076-1.442-.132-2.041.215-.663.384-.876,1.318-1.567,1.65a1.483,1.483,0,0,1-1.846-.78,2.957,2.957,0,0,1-.03-2.168,6.122,6.122,0,0,1,10.19-2.509,3.92,3.92,0,0,1,1.213,2.334,2.3,2.3,0,0,1-1.132,2.258Z" transform="translate(-765.949 -248.356)"/></g><path class="l" d="M235.746,774.979H181.211a.143.143,0,0,1,0-.286h54.536a.143.143,0,0,1,0,.286Z" transform="translate(-181.067 -681.095)"/></g></g></svg>