<svg xmlns="http://www.w3.org/2000/svg" xmlns:xlink="http://www.w3.org/1999/xlink" width="150" height="110" viewBox="0 0 150 110"><defs><style>.a{fill:#fff;stroke:#707070;}.b{clip-path:url(#a);}.c{fill:#e6e6e6;}.d{fill:#3f3d56;}.e{fill:#83c124;}.f{fill:#ccc;}.g{fill:#a0616a;}.h{fill:#2f2e41;}</style><clipPath id="a"><rect class="a" width="150" height="110" transform="translate(1072 695)"/></clipPath></defs><g class="b" transform="translate(-1072 -695)"><g transform="translate(1094.999 695)"><rect class="c" width="0.289" height="18.896" transform="translate(72.075 13.509) rotate(-46.407)"/><path class="c" d="M491.05,143.982l-.289.017.087,1.424-1.426-.017,0,.289,1.737.021Z" transform="translate(-405.151 -119.303)"/><path class="c" d="M419.482,76.227l0,.289-1.426-.017.087,1.424-.289.017-.106-1.734Z" transform="translate(-345.755 -63.019)"/><ellipse class="c" cx="1.591" cy="1.591" rx="1.591" ry="1.591" transform="translate(77.442 18.328)"/><rect class="c" width="18.896" height="0.289" transform="translate(18.008 26.329) rotate(-43.593)"/><path class="c" d="M103.815,145.716l1.737-.021,0-.289-1.426.017L104.21,144l-.289-.017Z" transform="translate(-85.849 -119.303)"/><path class="c" d="M177.227,76.206l-.106,1.734-.289-.017.087-1.424-1.426.017,0-.289Z" transform="translate(-145.247 -63.019)"/><ellipse class="c" cx="1.591" cy="1.591" rx="1.591" ry="1.591" transform="translate(23.346 18.328)"/><path class="d" d="M548.423,167.973H524.416a1.3,1.3,0,0,1-1.3-1.3V136.3a1.3,1.3,0,0,1,1.3-1.3h24.007a1.3,1.3,0,0,1,1.3,1.3v30.37A1.3,1.3,0,0,1,548.423,167.973Zm-24.007-32.684A1.014,1.014,0,0,0,523.4,136.3v30.37a1.013,1.013,0,0,0,1.012,1.012h24.007a1.013,1.013,0,0,0,1.012-1.012V136.3a1.013,1.013,0,0,0-1.012-1.012Z" transform="translate(-484.578 -135)"/><path class="e" d="M560.1,183.339h-5.284a.652.652,0,0,1-.651-.651v-6.236a.652.652,0,0,1,.651-.651H560.1a.651.651,0,0,1,.651.651v6.236A.651.651,0,0,1,560.1,183.339Z" transform="translate(-510.233 -168.741)"/><path class="f" d="M619.433,200.053h-5.284a.652.652,0,0,1-.651-.651v-6.236a.652.652,0,0,1,.651-.651h5.284a.652.652,0,0,1,.651.651V199.4A.652.652,0,0,1,619.433,200.053Z" transform="translate(-559.346 -182.563)"/><path class="e" d="M571.8,251.032h-5.284a.652.652,0,0,1-.651-.651v-6.236a.652.652,0,0,1,.651-.651H571.8a.652.652,0,0,1,.651.651v6.236A.652.652,0,0,1,571.8,251.032Z" transform="translate(-519.917 -224.909)"/><path class="d" d="M772.337,348.431H748.33a1.3,1.3,0,0,1-1.3-1.3v-30.37a1.3,1.3,0,0,1,1.3-1.3h24.007a1.3,1.3,0,0,1,1.3,1.3v30.37A1.3,1.3,0,0,1,772.337,348.431ZM748.33,315.746a1.014,1.014,0,0,0-1.012,1.012v30.37a1.014,1.014,0,0,0,1.012,1.012h24.007a1.014,1.014,0,0,0,1.012-1.012v-30.37a1.014,1.014,0,0,0-1.012-1.012Z" transform="translate(-669.958 -284.649)"/><path class="e" d="M805.575,348.789h-8.243a.579.579,0,0,1,0-1.157h8.243a.579.579,0,0,1,0,1.157Z" transform="translate(-711.078 -311.185)"/><path class="f" d="M790.274,380.546H773.932a.578.578,0,0,1,0-1.157h16.342a.579.579,0,0,1,0,1.157Z" transform="translate(-691.727 -337.499)"/><path class="f" d="M790.274,398.1H773.932a.578.578,0,0,1,0-1.157h16.342a.578.578,0,0,1,0,1.157Z" transform="translate(-691.727 -352.04)"/><path class="f" d="M790.274,415.646H773.932a.578.578,0,0,1,0-1.157h16.342a.578.578,0,0,1,0,1.157Z" transform="translate(-691.727 -366.582)"/><path class="f" d="M790.274,433.2H773.932a.578.578,0,0,1,0-1.157h16.342a.578.578,0,0,1,0,1.157Z" transform="translate(-691.727 -381.124)"/><path class="f" d="M790.274,450.746H773.932a.578.578,0,0,1,0-1.157h16.342a.578.578,0,0,1,0,1.157Z" transform="translate(-691.727 -395.665)"/><path class="f" d="M790.274,468.3H773.932a.578.578,0,0,1,0-1.157h16.342a.578.578,0,0,1,0,1.157Z" transform="translate(-691.727 -410.207)"/><path class="d" d="M324.508,348.43H300.5a1.3,1.3,0,0,1-1.3-1.3v-30.37a1.3,1.3,0,0,1,1.3-1.3h24.007a1.3,1.3,0,0,1,1.3,1.3v30.37A1.3,1.3,0,0,1,324.508,348.43ZM300.5,315.746a1.014,1.014,0,0,0-1.012,1.012v30.37a1.014,1.014,0,0,0,1.012,1.012h24.007a1.014,1.014,0,0,0,1.012-1.012v-30.37a1.013,1.013,0,0,0-1.012-1.012Z" transform="translate(-299.199 -284.649)"/><path class="d" d="M386.129,351.364H378.9a.578.578,0,0,1,0-1.157h7.231a.578.578,0,1,1,0,1.157Z" transform="translate(-364.627 -313.318)"/><path class="d" d="M386.129,368.914H378.9a.578.578,0,0,1,0-1.157h7.231a.578.578,0,0,1,0,1.157Z" transform="translate(-364.627 -327.86)"/><path class="e" d="M331.86,348.416h-5.284a.652.652,0,0,1-.651-.651v-6.236a.651.651,0,0,1,.651-.651h5.284a.651.651,0,0,1,.651.651v6.236A.652.652,0,0,1,331.86,348.416Z" transform="translate(-321.299 -305.61)"/><path class="f" d="M342.3,404.85H325.959a.578.578,0,1,1,0-1.157H342.3a.578.578,0,1,1,0,1.157Z" transform="translate(-320.849 -357.636)"/><path class="f" d="M342.3,422.4H325.959a.578.578,0,1,1,0-1.157H342.3a.578.578,0,1,1,0,1.157Z" transform="translate(-320.849 -372.178)"/><path class="f" d="M342.3,439.95H325.959a.578.578,0,1,1,0-1.157H342.3a.578.578,0,1,1,0,1.157Z" transform="translate(-320.849 -386.719)"/><path class="f" d="M342.3,457.5H325.959a.578.578,0,1,1,0-1.157H342.3a.578.578,0,1,1,0,1.157Z" transform="translate(-320.849 -401.261)"/><path class="f" d="M342.3,475.05H325.959a.578.578,0,1,1,0-1.157H342.3a.578.578,0,1,1,0,1.157Z" transform="translate(-320.849 -415.803)"/><g transform="translate(31.748 15.03)"><path class="c" d="M497.9,577.471v-8.647a.9.9,0,0,1,.9-.9h7.328a.9.9,0,0,1,.9.9v8.647a.9.9,0,0,1-.9.9H498.8A.9.9,0,0,1,497.9,577.471Z" transform="translate(-494.447 -521.871)"/><path class="e" d="M508.9,565.471v-8.647a.9.9,0,0,1,.9-.9h7.327a.9.9,0,0,1,.9.9v8.647a.9.9,0,0,1-.9.9H509.8A.9.9,0,0,1,508.9,565.471Z" transform="translate(-502.819 -512.721)"/><path class="g" d="M636.767,521.181a2.178,2.178,0,0,1-.576-3.29l-2.271-16.6,4.731.232.743,16.193a2.19,2.19,0,0,1-2.627,3.466Z" transform="translate(-597.968 -471.131)"/><path class="f" d="M625.181,465.247a.891.891,0,0,1-.361.255l-4.252,1.623a.893.893,0,0,1-1.135-.471l-3.767-8.464a3.537,3.537,0,0,1-.173-2.5,3.44,3.44,0,0,1,2.618-2.347,3.281,3.281,0,0,1,1.413.02,3.427,3.427,0,0,1,2.463,2.141l3.349,8.852A.9.9,0,0,1,625.181,465.247Z" transform="translate(-583.838 -434.473)"/><path class="g" d="M252.11,581.949h-2.942l-1.067-11.4,4.009.054Z" transform="translate(-232.841 -491.843)"/><path class="h" d="M232.475,614.557h5.673v3.572H228.9A3.572,3.572,0,0,1,232.475,614.557Z" transform="translate(-218.238 -525.292)"/><path class="g" d="M308.056,582.119h-2.942l-1.4-11.347h4.342Z" transform="translate(-275.166 -492.014)"/><path class="h" d="M289.475,614.557h5.673v3.572H285.9A3.572,3.572,0,0,1,289.475,614.557Z" transform="translate(-261.621 -525.292)"/><path class="h" d="M562.611,602.6l-4.62-.342a1.081,1.081,0,0,1-1-1.025l-1.03-21.291a.84.84,0,0,0-1.661-.128L550,600.788a1.081,1.081,0,0,1-1.144.86l-4.177-.334a1.08,1.08,0,0,1-.988-1.183l3.875-38.747a1.08,1.08,0,0,1,1.3-.948l14.734,3.2a1.083,1.083,0,0,1,.85,1.075l-.687,36.83a1.08,1.08,0,0,1-1.077,1.06Z" transform="translate(-529.324 -516.532)"/><ellipse class="g" cx="5.893" cy="5.893" rx="5.893" ry="5.893" transform="translate(23.331 1.485)"/><path class="f" d="M562.047,470.712a5.27,5.27,0,0,1-1.75-4.047c0-8.471,7.332-27.395,7.562-27.985.022-.142.216-.2,1.231-.889s2.48-.792,4.352-.313a1.075,1.075,0,0,1,.78.8l.348.5a.838.838,0,0,0,.487.577c1.51.636,6.31,3.57,4.674,14.611-1.519,10.256-2.136,16.288-2.331,18.406a1.078,1.078,0,0,1-.977.975c-.74.066-2.011.154-3.525.154C569.391,473.5,564.579,473.027,562.047,470.712Z" transform="translate(-541.963 -422.351)"/><path class="g" d="M537.543,506.494a2.178,2.178,0,0,1,1.355-3.053l7.365-15.051,3.8,2.829-8.406,13.86a2.19,2.19,0,0,1-4.113,1.414Z" transform="translate(-524.46 -461.287)"/><path class="f" d="M574.513,457.812a.886.886,0,0,1-.442.011l-4.435-1.022a.893.893,0,0,1-.679-1.024l1.589-9.127a3.535,3.535,0,0,1,1.251-2.175,3.44,3.44,0,0,1,3.482-.49,3.28,3.28,0,0,1,1.162.8,3.426,3.426,0,0,1,.852,3.15l-2.152,9.216A.894.894,0,0,1,574.513,457.812Z" transform="translate(-548.52 -427.189)"/><path class="h" d="M581.139,386.816a2.54,2.54,0,0,1-.681-2.252c.205-1.075.326-1.778.349-2.034h0c.078-.875-.807-1.584-1.682-1.7l-.086-.009.067.064c.167.156.374.351.324.551-.03.121-.14.207-.338.262a2.858,2.858,0,0,1-3.319-1.108,2.647,2.647,0,0,1-.505-1.1,4.383,4.383,0,0,1,1.307-3.761,4.549,4.549,0,0,1,2.974-1.62,2.612,2.612,0,0,1,2.579,1.577,1.958,1.958,0,0,1,1.526-.86,3.518,3.518,0,0,1,1.958.544,6.528,6.528,0,0,1-2.311,12.156,2.484,2.484,0,0,1-.416.035,2.427,2.427,0,0,1-1.746-.745Z" transform="translate(-553.294 -374.104)"/><path class="d" d="M484.019,763.48h46.79a.24.24,0,1,0,0-.48h-46.79a.24.24,0,0,0,0,.48Z" transform="translate(-483.779 -670.509)"/></g></g></g></svg>