<svg xmlns="http://www.w3.org/2000/svg" xmlns:xlink="http://www.w3.org/1999/xlink" width="66" height="68" viewBox="0 0 66 68"><defs><style>.a{fill:#fff;stroke:#707070;}.b{clip-path:url(#a);}.c{fill:#f0dcf4;}.d{fill:#465159;stroke:#fff;stroke-width:0.2px;}</style><clipPath id="a"><rect class="a" width="66" height="68" transform="translate(648 1992)"/></clipPath></defs><g class="b" transform="translate(-648 -1992)"><ellipse class="c" cx="21.526" cy="21.526" rx="21.526" ry="21.526" transform="translate(660 1994.807)"/><path class="d" d="M55.737,12.488h4.789a1.044,1.044,0,0,0,.738-.306L65.442,8A1.044,1.044,0,0,0,64.7,6.222H62l1.35-1.35L61.877,3.395l-1.35,1.35v-2.7a1.044,1.044,0,0,0-1.783-.738L54.567,5.483a1.044,1.044,0,0,0-.306.738v4.789l-.757.757a17.649,17.649,0,0,0-10.73-4.449V4.133H40.685V7.319a17.7,17.7,0,0,0-12.467,6.213H22.931A14.636,14.636,0,0,0,8.31,27.917L1.1,43.373a1.044,1.044,0,0,0,.948,1.489H8.31V57.394a1.044,1.044,0,0,0,1.044,1.044H19.8V64.7a1.044,1.044,0,0,0,1.044,1.044H42.773A1.044,1.044,0,0,0,43.818,64.7V52.419L48.935,42.2a1.044,1.044,0,0,0,.1-.467V41.18a17.754,17.754,0,0,0,10.39-15.116h3.186V23.975H59.429A17.649,17.649,0,0,0,54.98,13.245ZM62.183,8.31,60.094,10.4H57.826L59.915,8.31ZM56.349,6.654l2.089-2.089V6.834L56.349,8.922ZM41.833,51.705a1.044,1.044,0,0,0-.1.467V63.66H21.887V57.394a1.044,1.044,0,0,0-1.044-1.044H10.4V43.818a1.044,1.044,0,0,0-1.044-1.044H3.684L10.3,28.594a1.044,1.044,0,0,0,.1-.442A12.546,12.546,0,0,1,22.931,15.621h3.76a17.613,17.613,0,0,0-2.666,8.355H20.842v2.089h3.186A17.747,17.747,0,0,0,40.685,42.72v3.186h2.089V42.72a17.671,17.671,0,0,0,3.887-.658ZM57.34,23.975h-.991v2.089h.991A15.665,15.665,0,0,1,42.773,40.631V39.64H40.685v.991A15.665,15.665,0,0,1,26.117,26.064h.991V23.975h-.991A15.665,15.665,0,0,1,40.685,9.408V10.4h2.089V9.408a15.573,15.573,0,0,1,9.254,3.837L50.55,14.721A13.617,13.617,0,1,0,52.027,16.2L53.5,14.721a15.573,15.573,0,0,1,3.837,9.254Zm-8.3,1.044a7.309,7.309,0,1,1-4.93-6.912l-.578,2.023a5.259,5.259,0,1,0,3.087,3.087l2.023-.578A7.242,7.242,0,0,1,49.039,25.02Zm-1.624-5.4,1.253.835-3.331.951.951-3.331.835,1.253a1.059,1.059,0,0,0,.291.291Zm-2.553,5.4a3.133,3.133,0,1,1-3.133-3.133,3.1,3.1,0,0,1,1.226.259l-.142.5a1.044,1.044,0,0,0,1,1.33,1.063,1.063,0,0,0,.286-.04l.5-.142A3.1,3.1,0,0,1,44.862,25.02Zm3.295-7.9-1.382-2.074a1.044,1.044,0,0,0-1.874.293l-.219.768a9.294,9.294,0,0,0-2.953-.481,9.4,9.4,0,1,0,9.4,9.4,9.3,9.3,0,0,0-.482-2.954l.768-.219a1.044,1.044,0,0,0,.293-1.874l-2.074-1.382.918-.918A11.505,11.505,0,1,1,49.075,16.2Z" transform="translate(647.503 1994.059)"/></g></svg>