<svg xmlns="http://www.w3.org/2000/svg" xmlns:xlink="http://www.w3.org/1999/xlink" width="66" height="68" viewBox="0 0 66 68"><defs><style>.a{fill:#fff;stroke:#707070;}.b{clip-path:url(#a);}.c{fill:#fddfaf;}.d{fill:#465159;}</style><clipPath id="a"><rect class="a" width="66" height="68" transform="translate(425 1992)"/></clipPath></defs><g class="b" transform="translate(-425 -1992)"><ellipse class="c" cx="21.493" cy="21.493" rx="21.493" ry="21.493" transform="translate(439.841 1994.908)"/><g transform="translate(429.167 1995.159)"><path class="d" d="M249.434,7.445a.949.949,0,0,0,.949-.949V.949a.949.949,0,0,0-1.9,0V6.5A.949.949,0,0,0,249.434,7.445Z" transform="translate(-220.177 0)"/><path class="d" d="M30.789,224.192H25.242a.949.949,0,1,0,0,1.9h5.547a.949.949,0,1,0,0-1.9Z" transform="translate(-24.293 -195.884)"/><path class="d" d="M435.242,224.192h-5.547a.949.949,0,1,0,0,1.9h5.547a.949.949,0,1,0,0-1.9Z" transform="translate(-377.677 -195.884)"/><path class="d" d="M381.494,65.943a.949.949,0,0,0-1.342,0l-3.922,3.922a.949.949,0,0,0,1.342,1.342l3.922-3.922A.949.949,0,0,0,381.494,65.943Z" transform="translate(-331.55 -57.374)"/><path class="d" d="M420.127,153.09a.949.949,0,0,0-1.23-.537l-1.917.751a.949.949,0,0,0,.692,1.767l1.917-.751A.949.949,0,0,0,420.127,153.09Z" transform="translate(-366.877 -133.233)"/><path class="d" d="M314.843,44.532a.986.986,0,0,0,1.23-.537l.773-1.973a.949.949,0,1,0-1.767-.692l-.773,1.973A.949.949,0,0,0,314.843,44.532Z" transform="translate(-277.63 -35.584)"/><path class="d" d="M177.445,43.995a.949.949,0,0,0,1.767-.692l-.773-1.973a.949.949,0,1,0-1.767.692Z" transform="translate(-157.374 -35.585)"/><path class="d" d="M95.5,71.206a.949.949,0,0,0,0-1.342l-3.922-3.922a.949.949,0,0,0-1.342,1.342l3.922,3.922A.967.967,0,0,0,95.5,71.206Z" transform="translate(-81.666 -57.373)"/><path class="d" d="M68.673,153.3l-1.917-.751a.949.949,0,1,0-.692,1.767l1.917.751a.949.949,0,1,0,.692-1.767Z" transform="translate(-60.263 -133.232)"/><path class="d" d="M153.9,285.3a.949.949,0,0,0-1.316.262,25.388,25.388,0,0,1-1.759,2.331,5,5,0,0,0-1.186,3.235v3.2H132.726v-3.164a7.034,7.034,0,0,0-1.645-4.51c-3.784-4.515-3.84-11.306-3.841-11.373a.949.949,0,0,0-1.9,0c0,.305.049,7.54,4.284,12.592a5.133,5.133,0,0,1,1.2,3.291v3.164h-.157a.949.949,0,0,0-.949.949v8.116a.949.949,0,0,0,.949.949h5.564a.949.949,0,0,0,0-1.9H131.62v-6.218h19.123v6.218H140.031a.949.949,0,1,0,0,1.9h11.662a.949.949,0,0,0,.949-.949v-8.116a.949.949,0,0,0-.949-.949h-.157v-3.2a3.1,3.1,0,0,1,.734-2.007,27.308,27.308,0,0,0,1.891-2.505.949.949,0,0,0-.262-1.316Z" transform="translate(-112.584 -239.692)"/><path class="d" d="M152.155,91.764h-.62V86.581a3.985,3.985,0,0,0-7.82-1.086,3.981,3.981,0,0,0-6,1.971,3.982,3.982,0,0,0-6.257,2.651,3.982,3.982,0,0,0-6.118,3.367v10.959a.949.949,0,0,0,1.9,0v-2.694a3.973,3.973,0,0,0,4.575-.282,3.981,3.981,0,0,0,5.891,1.512,3.983,3.983,0,0,0,7.164.793,4,4,0,0,0,.981.657,16.093,16.093,0,0,0-6.311,7.566.949.949,0,0,0,1.756.719,14.46,14.46,0,0,1,8.91-8.238.949.949,0,0,0,.686-.681s.86-3.314.861-3.319a.949.949,0,0,0-.73-1.126l-6.953-1.486a3.521,3.521,0,0,1-2.7-3.476.694.694,0,0,1,.66-.723h10.127a3.332,3.332,0,0,1,2.713,1.163c2.507,2.968,1.508,10.906.538,16.618a14.525,14.525,0,0,1-1.06,3.418.949.949,0,0,0,1.736.767,16.415,16.415,0,0,0,1.2-3.868c1.12-6.6,2.023-14.629-.959-18.16a5.193,5.193,0,0,0-4.163-1.836Zm-6.693-5.183a2.088,2.088,0,1,1,4.176,0v5.183h-4.176Zm-16.133,13.862a2.091,2.091,0,0,1-2.088-2.09V93.483a2.088,2.088,0,1,1,4.176,0v4.869A2.091,2.091,0,0,1,129.329,100.443Zm6.074,1.374a2.09,2.09,0,0,1-2.088-2.088V90.706a2.088,2.088,0,1,1,4.176,0v9.022A2.09,2.09,0,0,1,135.4,101.816Zm10.059-1.718,4.167.891a2.087,2.087,0,0,1-4.167-.17Zm-5.991-5.713a5.432,5.432,0,0,0,4.093,5.305v1.994a2.088,2.088,0,1,1-4.176,0V88.792a2.088,2.088,0,1,1,4.176,0v2.972h-1.536A2.593,2.593,0,0,0,139.471,94.385Z" transform="translate(-112.584 -72.164)"/></g></g></svg>