<svg xmlns="http://www.w3.org/2000/svg" xmlns:xlink="http://www.w3.org/1999/xlink" width="150" height="110" viewBox="0 0 150 110"><defs><style>.a,.h{fill:#fff;}.a{stroke:#707070;}.b{clip-path:url(#a);}.c{fill:#f0f0f0;}.d{fill:#3f3d56;}.e{fill:#e6e6e6;}.f{fill:#83c124;}.g{fill:#ccc;}.i{fill:#ffb8b8;}.j{fill:#2f2e41;}.k{fill:#cacaca;}</style><clipPath id="a"><rect class="a" width="150" height="110" transform="translate(629 693)"/></clipPath></defs><g class="b" transform="translate(-629 -693)"><g transform="translate(649.775 711.329)"><path class="c" d="M908.163,618.909a17.232,17.232,0,0,1-.8,4.762c-.011.036-.023.071-.035.107h-3c0-.032.006-.068.009-.107.2-2.3,1.355-16.314-.026-18.711C904.425,605.156,908.4,611.594,908.163,618.909Z" transform="translate(-795.223 -535.941)"/><path class="c" d="M899.932,609.793c-.053.075-.107.15-.163.223h-4.712l.125-.223c.779-1.405,3.083-5.6,5.221-9.96,2.3-4.68,4.407-9.537,4.229-11.295C904.687,588.935,906.277,601.022,899.932,609.793Z" transform="translate(-787.474 -522.179)"/><path class="d" d="M640.431,544.181H593.737a.866.866,0,0,1-.865-.865V531.734a.866.866,0,0,1,.865-.865h46.694a.866.866,0,0,1,.865.865v11.583A.866.866,0,0,1,640.431,544.181Zm-46.694-12.967a.519.519,0,0,0-.518.518v11.583a.519.519,0,0,0,.518.518h46.694a.519.519,0,0,0,.518-.518V531.734a.519.519,0,0,0-.518-.518Z" transform="translate(-534.238 -473.85)"/><ellipse class="e" cx="3.522" cy="3.522" rx="3.522" ry="3.522" transform="translate(51.569 77.266)"/><path class="e" d="M618.185,663.868a.587.587,0,0,0,0,1.174h27.676a.587.587,0,0,0,0-1.174Z" transform="translate(-554.959 -585.306)"/><path class="e" d="M618.179,685.614a.587.587,0,1,0,0,1.174h11.911a.587.587,0,1,0,0-1.174Z" transform="translate(-554.953 -603.529)"/><ellipse class="e" cx="3.522" cy="3.522" rx="3.522" ry="3.522" transform="translate(63.232 60.096)"/><path class="e" d="M690.185,557.868a.587.587,0,0,0,0,1.174h27.676a.587.587,0,1,0,0-1.174Z" transform="translate(-615.296 -496.476)"/><path class="e" d="M690.185,579.614a.587.587,0,0,0,0,1.174h11.909a.587.587,0,1,0,0-1.174Z" transform="translate(-615.296 -514.7)"/><g transform="translate(49.563 0)"><path class="d" d="M584.431,220.529H537.737a.866.866,0,0,1-.865-.865v-39.93a.866.866,0,0,1,.865-.865h46.694a.866.866,0,0,1,.865.865v39.93a.865.865,0,0,1-.865.865Zm-46.694-41.315a.519.519,0,0,0-.518.518v39.931a.52.52,0,0,0,.518.518h46.694a.519.519,0,0,0,.518-.518v-39.93a.519.519,0,0,0-.518-.518Z" transform="translate(-536.872 -178.869)"/><ellipse class="f" cx="3.522" cy="3.522" rx="3.522" ry="3.522" transform="translate(4.597 3.499)"/><path class="g" d="M634.185,207.72a.587.587,0,0,0,0,1.174h27.676a.587.587,0,1,0,0-1.174Z" transform="translate(-617.93 -203.047)"/><path class="g" d="M634.185,229.466a.587.587,0,0,0,0,1.174h11.909a.587.587,0,1,0,0-1.174Z" transform="translate(-617.93 -221.27)"/><path class="f" d="M652.919,289.113H606.225a.866.866,0,0,1-.865-.865V267.756a.866.866,0,0,1,.865-.865h46.695a.866.866,0,0,1,.865.865v20.492A.866.866,0,0,1,652.919,289.113Z" transform="translate(-594.266 -252.633)"/><path class="h" d="M666.367,310.985a.587.587,0,0,0,0,1.174h27.676a.587.587,0,1,0,0-1.174Z" transform="translate(-644.899 -289.584)"/><path class="h" d="M666.367,331.985a.587.587,0,0,0,0,1.174h27.676a.587.587,0,1,0,0-1.174Z" transform="translate(-644.899 -307.183)"/><path class="h" d="M666.367,352.731a.587.587,0,0,0,0,1.174h11.909a.587.587,0,1,0,0-1.174Z" transform="translate(-644.899 -324.568)"/></g><path class="d" d="M568.431,650.181H521.737a.866.866,0,0,1-.865-.865V637.734a.865.865,0,0,1,.865-.865h46.694a.866.866,0,0,1,.865.865v11.583a.866.866,0,0,1-.865.865Zm-46.694-12.967a.519.519,0,0,0-.518.518v11.583a.52.52,0,0,0,.518.519h46.694a.519.519,0,0,0,.518-.518V637.734a.519.519,0,0,0-.518-.518Z" transform="translate(-473.901 -562.68)"/><g transform="translate(-14.774 -14.447)"><path class="i" d="M345.411,377.705l-1.841-19.514-5.489.189,4.345,19.271a2.273,2.273,0,1,0,2.985.055Z" transform="translate(-317.793 -324.605)"/><path class="c" d="M286.169,571.964a29.982,29.982,0,0,0,1.4,8.288c.019.062.04.124.06.186h5.227c-.006-.056-.011-.118-.017-.186-.348-4.006-2.358-28.39.045-32.56C292.675,548.029,285.763,559.233,286.169,571.964Z" transform="translate(-275.693 -478.235)"/><path class="c" d="M270.791,643.958c.044.062.089.124.136.186h3.921l-.1-.186c-.648-1.169-2.565-4.664-4.345-8.288-1.912-3.894-3.667-7.935-3.519-9.4C266.834,626.6,265.51,636.659,270.791,643.958Z" transform="translate(-259.922 -541.942)"/><path class="j" d="M380.982,520.212h-4.164l-2.461-34.639-.095,8.8L365.176,518.6l-3.6-2.839,5.962-24.134L364.7,478.191h18.55Z" transform="translate(-336.844 -421.89)"/><ellipse class="i" cx="4.921" cy="4.921" rx="4.921" ry="4.921" transform="translate(32.592 3.679)"/><path class="d" d="M378.138,305.727c-8.04-2.063-15.585-3.453-20.253-.946.818-8.6-.128-19.568-2.934-31.036-.911-3.725-.293-7.081,3.029-9l4.448-2.555,6.814.189,3.555,1.967a8.927,8.927,0,0,1,4.78,9.649C375.667,284.049,376.7,294.9,378.138,305.727Z" transform="translate(-331.161 -246.777)"/><path class="d" d="M343.977,297.9l-8.9-.568c.7-8.752,2.673-13.536,5.679-15.143l3.218,3.786Z" transform="translate(-315.36 -262.99)"/><path class="j" d="M397.682,191.951a4.339,4.339,0,0,0-1.342.3c-.927.2-1.878-.218-2.831-.214a5.257,5.257,0,0,0-2.328.695,5.623,5.623,0,0,0-1.552,1.087,2.533,2.533,0,0,0-.74,1.708,2.8,2.8,0,0,1-.033,1.109,3.111,3.111,0,0,1-.341.518,1.537,1.537,0,0,0-.159,1.283,4.256,4.256,0,0,0,.765,1.146c.614.787,1,1.73,1.549,2.565a7.977,7.977,0,0,0,.806,1.024.569.569,0,0,0,.174.137.533.533,0,0,0,.2.03,8.162,8.162,0,0,0,3.452-.4,1.578,1.578,0,0,0,.828-.665,2.347,2.347,0,0,0,.081-1.331,6.1,6.1,0,0,1,.033-1.478.651.651,0,0,1,.189-.44.591.591,0,0,1,.591-.019,1.613,1.613,0,0,0,.588.177c.4,0,.658-.458.739-.858a2.011,2.011,0,0,1,.824-1.881,2.822,2.822,0,0,0-1.5-4.487Z" transform="translate(-358.491 -189.827)"/><path class="i" d="M456.411,373.705l-1.841-19.514-5.489.189,4.345,19.271a2.273,2.273,0,1,0,2.985.054Z" transform="translate(-407.782 -321.361)"/><path class="d" d="M450.787,305.927l-8.328,1.893-.379-13.629,4.732.189Z" transform="translate(-402.106 -272.719)"/><path class="j" d="M441.384,698.389h6.041a3.85,3.85,0,0,1,3.85,3.849v.125h-9.891Z" transform="translate(-401.542 -600.408)"/><path class="j" d="M352.008,673.121l5.078,3.272h0a3.85,3.85,0,0,1,1.151,5.321l-.068.105-8.315-5.356Z" transform="translate(-327.338 -579.923)"/><rect class="k" width="139.733" height="0.379" transform="translate(-0.001 101.906)"/></g></g></g></svg>