<svg xmlns="http://www.w3.org/2000/svg" xmlns:xlink="http://www.w3.org/1999/xlink" width="66" height="68" viewBox="0 0 66 68"><defs><style>.a{fill:#fff;stroke:#707070;}.b{clip-path:url(#a);}.c{fill:#dffab5;}.d{fill:#465159;}</style><clipPath id="a"><rect class="a" width="66" height="68" transform="translate(212 1993)"/></clipPath></defs><g class="b" transform="translate(-212 -1993)"><circle class="c" cx="21.5" cy="21.5" r="21.5" transform="translate(234.313 1994.908)"/><g transform="translate(212 1994.663)"><path class="d" d="M82.541,54.558a.957.957,0,0,0-1.823.581A20.872,20.872,0,0,1,78.1,73.191L78,70.336a15.493,15.493,0,0,0-5.056-10.967,13.882,13.882,0,0,0-1.725-16,20.956,20.956,0,0,1,7.967,8.184.957.957,0,0,0,1.682-.912,22.7,22.7,0,1,0,1.668,3.917ZM50.38,43.371a13.863,13.863,0,0,0-3.028,5.651.957.957,0,0,0,1.85.489,12.005,12.005,0,1,1-.371,3.865.957.957,0,0,0-1.909.126,13.8,13.8,0,0,0,1.743,5.865,15.493,15.493,0,0,0-5.057,10.968l-.091,2.855a20.873,20.873,0,0,1,6.863-29.82ZM60.806,82.366a20.845,20.845,0,0,1-15.449-6.841l.163-5.128a13.579,13.579,0,0,1,4.212-9.407,13.9,13.9,0,0,0,22.15,0,13.58,13.58,0,0,1,4.209,9.4l.163,5.128a20.844,20.844,0,0,1-15.448,6.841Z" transform="translate(-33.151 -33.817)"/><path class="d" d="M158.253,178.554a9.575,9.575,0,0,0,8.444-5.063.957.957,0,0,0-1.686-.9,7.66,7.66,0,0,1-13.516,0,.957.957,0,0,0-1.686.9A9.575,9.575,0,0,0,158.253,178.554Z" transform="translate(-130.598 -150.213)"/><path class="d" d="M170.095,105.724a.957.957,0,0,0,.957-.957v-1.874a.957.957,0,1,0-1.914,0v1.874A.957.957,0,0,0,170.095,105.724Z" transform="translate(-147.561 -89.017)"/><path class="d" d="M250.379,105.724a.957.957,0,0,0,.957-.957v-1.874a.957.957,0,1,0-1.914,0v1.874A.957.957,0,0,0,250.379,105.724Z" transform="translate(-217.603 -89.017)"/><path class="d" d="M64.265,59.7,49.651,45.086a27.657,27.657,0,0,0-22-44.422A27.655,27.655,0,0,0,8.1,47.874a27.664,27.664,0,0,0,36.513,2.3l1.12,1.12a.957.957,0,0,0,1.353-1.353l-1-1q.574-.514,1.125-1.063.634-.634,1.22-1.3L62.912,61.053a1.665,1.665,0,0,1-2.355,2.355L49.969,52.82a.957.957,0,1,0-1.353,1.353L59.2,64.761A3.579,3.579,0,1,0,64.265,59.7ZM27.655,54.06A25.741,25.741,0,1,1,53.4,28.319,25.771,25.771,0,0,1,27.655,54.06Z" transform="translate(0 -0.664)"/></g></g></svg>