<svg xmlns="http://www.w3.org/2000/svg" xmlns:xlink="http://www.w3.org/1999/xlink" width="28" height="28" viewBox="0 0 28 28"><defs><style>.a{isolation:isolate;}.b{fill:url(#a);}.c{fill:#5e2b0a;}</style><radialGradient id="a" cx="0.5" cy="0.5" r="0.643" gradientUnits="objectBoundingBox"><stop offset="0" stop-color="#fed230"/><stop offset="1" stop-color="#faa428"/></radialGradient></defs><g class="a" transform="translate(-1 -1)"><path class="b" d="M14,0A14,14,0,1,1,0,14,14,14,0,0,1,14,0Z" transform="translate(1 1)"/><g transform="translate(8 7.933)"><path class="c" d="M10.555,14.832l3-2a1,1,0,0,0,0-1.664l-3-2a1,1,0,1,0-1.11,1.664L11.2,12,9.445,13.168a1,1,0,1,0,1.11,1.664Z" transform="translate(-9 -9)"/><path class="c" d="M20.8,12l1.752-1.168a1,1,0,1,0-1.11-1.664l-3,2a1,1,0,0,0,0,1.664l3,2a1,1,0,1,0,1.11-1.664Z" transform="translate(-9 -9)"/><path class="c" d="M16,20a8.993,8.993,0,0,0-5.953,2.25,1,1,0,1,0,1.324,1.5,7,7,0,0,1,9.258,0,1,1,0,0,0,1.324-1.5A8.993,8.993,0,0,0,16,20Z" transform="translate(-9 -9)"/></g></g></svg>