<svg xmlns="http://www.w3.org/2000/svg" xmlns:xlink="http://www.w3.org/1999/xlink" width="28" height="28" viewBox="0 0 28 28"><defs><style>.a{fill:url(#a);}.b{fill:#5e2b0a;}.c{fill:#fff;}</style><radialGradient id="a" cx="0.5" cy="0.5" r="0.5" gradientUnits="objectBoundingBox"><stop offset="0" stop-color="#fed230"/><stop offset="1" stop-color="#faa402"/></radialGradient></defs><g transform="translate(-0.785 -0.785)"><circle class="a" cx="14" cy="14" r="14" transform="translate(0.785 0.785)"/><path class="b" d="M12.663,10.29a.988.988,0,0,0-1.4,0L9.29,12.266a.988.988,0,1,0,1.4,1.4l1.277-1.278,1.278,1.278a.988.988,0,1,0,1.4-1.4Z" transform="translate(-0.803 -0.84)"/><path class="b" d="M22.639,12.266,20.663,10.29a.988.988,0,0,0-1.4,0L17.29,12.266a.988.988,0,1,0,1.4,1.4l1.277-1.278,1.278,1.278a.988.988,0,1,0,1.4-1.4Z" transform="translate(-1.555 -0.84)"/><path class="c" d="M21.845,19H9.988A.988.988,0,0,0,9,19.988a6.916,6.916,0,1,0,13.833,0A.988.988,0,0,0,21.845,19Z" transform="translate(-1.131 -2.251)"/></g></svg>