<svg xmlns="http://www.w3.org/2000/svg" xmlns:xlink="http://www.w3.org/1999/xlink" width="28" height="28" viewBox="0 0 28 28"><defs><style>.a{fill:url(#a);}.b{fill:#5e2b0a;}</style><radialGradient id="a" cx="0.5" cy="0.5" r="0.65" gradientUnits="objectBoundingBox"><stop offset="0" stop-color="#fed230"/><stop offset="1" stop-color="#faa428"/></radialGradient></defs><g transform="translate(0)"><path class="a" d="M14,0A14,14,0,1,1,0,14,14,14,0,0,1,14,0Z"/><g transform="translate(7.467 9.333)"><path class="b" d="M20.267,21H10.933a.933.933,0,1,0,0,1.867h9.333a.933.933,0,0,0,0-1.867Z" transform="translate(-9.067 -11.667)"/><path class="b" d="M13.667,12.867a.933.933,0,0,0,0-1.867H9.933a.933.933,0,0,0,0,1.867Z" transform="translate(-9 -11)"/><path class="b" d="M21.667,11H17.933a.933.933,0,0,0,0,1.867h3.733a.933.933,0,1,0,0-1.867Z" transform="translate(-9.533 -11)"/></g></g></svg>