<svg xmlns="http://www.w3.org/2000/svg" xmlns:xlink="http://www.w3.org/1999/xlink" width="28" height="28" viewBox="0 0 28 28"><defs><style>.a{isolation:isolate;}.b{fill:url(#a);}.c{fill:#5e2b0a;}</style><radialGradient id="a" cx="0.5" cy="0.5" r="0.59" gradientTransform="translate(-0.066 0.076) rotate(-8.179)" gradientUnits="objectBoundingBox"><stop offset="0" stop-color="#fed230"/><stop offset="1" stop-color="#faa428"/></radialGradient></defs><g class="a" transform="translate(-1 -1)"><path class="b" d="M14,0A14,14,0,1,1,0,14,14,14,0,0,1,14,0Z" transform="translate(1 1)"/><g transform="translate(7.057 8.8)"><circle class="c" cx="2" cy="2" r="2" transform="translate(9.945)"/><circle class="c" cx="2" cy="2" r="2" transform="translate(1.945)"/><path class="c" d="M23.431,19.134a1,1,0,0,0-1.367.365,7,7,0,0,1-12.128,0,1,1,0,1,0-1.731,1,9,9,0,0,0,15.59,0,1,1,0,0,0-.364-1.365Z" transform="translate(-8.055 -10)"/></g></g></svg>