<svg xmlns="http://www.w3.org/2000/svg" xmlns:xlink="http://www.w3.org/1999/xlink" width="163" height="117" viewBox="0 0 163 117">
  <defs>
    <clipPath id="clip-path">
      <rect id="Rectangle_19547" data-name="Rectangle 19547" width="163" height="117" transform="translate(909 499)" fill="none" stroke="#707070" stroke-width="1"/>
    </clipPath>
    <clipPath id="clip-path-2">
      <rect id="Rectangle_19504" data-name="Rectangle 19504" width="162.209" height="107.269" transform="translate(-18)" fill="none"/>
    </clipPath>
    <clipPath id="clip-path-3">
      <rect id="Rectangle_19503" data-name="Rectangle 19503" width="161.303" height="107.269" transform="translate(-17.095)" fill="none"/>
    </clipPath>
    <clipPath id="clip-path-4">
      <rect id="Rectangle_19501" data-name="Rectangle 19501" width="20.387" height="7.413" fill="none"/>
    </clipPath>
    <clipPath id="clip-path-5">
      <rect id="Rectangle_19502" data-name="Rectangle 19502" width="5.567" height="7.926" fill="none"/>
    </clipPath>
  </defs>
  <g id="Learning_outcome_illustration" data-name="Learning outcome illustration" transform="translate(-909 -499)" clip-path="url(#clip-path)">
    <g id="Group_118920" data-name="Group 118920" transform="translate(924.849 503.57)">
      <g id="Group_118928" data-name="Group 118928" clip-path="url(#clip-path-2)">
        <g id="Group_118927" data-name="Group 118927">
          <g id="Group_118926" data-name="Group 118926" clip-path="url(#clip-path-3)">
            <path id="Path_87926" data-name="Path 87926" d="M143.766,25.467a16.439,16.439,0,0,0,1.49-5.81c.012-2.016-.88-4.172-2.647-5.032-1.632-.8-3.595-.338-5.319-.893-2.127-.684-3.52-2.763-4.518-4.818s-1.816-4.291-3.444-5.86A7.224,7.224,0,0,0,121.1,1.944,12.282,12.282,0,0,0,114.721,0c-2.836,0-6.055.326-7.972,2.418-1.487,1.623-2.4,3.657-4.249,4.851-2.544,1.641-5.889.415-8.909.619-.616.042-1.33.22-1.567.791a1.874,1.874,0,0,0,.29,1.521L94.8,15.005a4.647,4.647,0,0,1-4.049.026,13.751,13.751,0,0,0,3.858,8.539,1.168,1.168,0,0,0-1.592.663,2.925,2.925,0,0,0,.086,1.932,14.158,14.158,0,0,0,19.508,8.727l16.707.742a4.258,4.258,0,0,0,2.956,2.581c1.825-1.439,2.1-2.224,2.1-2.224,1.175.819.259.417,1.175.819,2.1.922,5.117-.342,5.512-2.659a4.877,4.877,0,0,1,1.03-2.575,8.591,8.591,0,0,1,2.393-1.422,6.855,6.855,0,0,0,2.956-3.221,4.949,4.949,0,0,1-3.675-1.467" transform="translate(-42.995 0)" fill="#263238"/>
            <path id="Path_87927" data-name="Path 87927" d="M113.18,22A16.053,16.053,0,0,1,128.06,6.1l.829-.061c8.978-.133,14.106,7.417,13.991,16.4l1.334,41.346-20.5,1.46-.775-13.433s-8.692-.706-9.428-9.291c-.356-4.146-.393-12.744-.336-20.525" transform="translate(-53.609 -2.862)" fill="#ffbe9d"/>
            <path id="Path_87928" data-name="Path 87928" d="M121.376,47.627a1.23,1.23,0,0,0,1.274,1.151,1.177,1.177,0,0,0,1.184-1.2,1.231,1.231,0,0,0-1.272-1.152,1.178,1.178,0,0,0-1.185,1.2" transform="translate(-57.502 -21.995)" fill="#263238"/>
            <path id="Path_87929" data-name="Path 87929" d="M118.109,41.282c.164.149,1.043-.607,2.364-.7,1.318-.113,2.337.5,2.468.324.065-.076-.111-.354-.555-.63a3.378,3.378,0,0,0-1.99-.457,3.238,3.238,0,0,0-1.867.758c-.383.341-.5.64-.419.707" transform="translate(-55.944 -18.859)" fill="#263238"/>
            <path id="Path_87930" data-name="Path 87930" d="M131.661,53.049a8.729,8.729,0,0,0-2.173-.229c-.34-.011-.664-.054-.737-.28a1.721,1.721,0,0,1,.152-1.016q.386-1.258.809-2.64A44.265,44.265,0,0,0,131.459,42a44.292,44.292,0,0,0-2.3,6.723q-.4,1.389-.766,2.653a1.956,1.956,0,0,0-.078,1.336.849.849,0,0,0,.59.453,2.3,2.3,0,0,0,.578.037,8.635,8.635,0,0,0,2.174-.156" transform="translate(-60.747 -19.899)" fill="#263238"/>
            <path id="Path_87931" data-name="Path 87931" d="M117.313,35.17c.3.282,1.4-.1,2.738-.2,1.336-.137,2.488.046,2.729-.284.105-.159-.092-.449-.606-.7a4.445,4.445,0,0,0-2.258-.352,4.363,4.363,0,0,0-2.147.74c-.454.338-.59.657-.456.8" transform="translate(-55.554 -15.925)" fill="#263238"/>
            <path id="Path_87932" data-name="Path 87932" d="M168.056,49.086c.142-.074,5.776-2.179,6.019,3.709s-5.718,4.918-5.736,4.749-.283-8.458-.283-8.458" transform="translate(-79.618 -23.053)" fill="#ffbe9d"/>
            <path id="Path_87933" data-name="Path 87933" d="M170.851,57c.025-.02.106.067.283.14a1.024,1.024,0,0,0,.767-.016,2.541,2.541,0,0,0,1.08-2.325,3.4,3.4,0,0,0-.348-1.457,1.187,1.187,0,0,0-.8-.755.522.522,0,0,0-.594.306c-.073.167-.03.284-.061.295-.016.016-.13-.093-.093-.338a.658.658,0,0,1,.217-.378.772.772,0,0,1,.561-.173,1.442,1.442,0,0,1,1.109.868,3.488,3.488,0,0,1,.423,1.627,2.663,2.663,0,0,1-1.391,2.6,1.1,1.1,0,0,1-.945-.117c-.188-.138-.225-.268-.2-.28" transform="translate(-80.939 -24.774)" fill="#eb996e"/>
            <path id="Path_87934" data-name="Path 87934" d="M139.323,14.263a13.827,13.827,0,0,0-2.288-4.752c-3.083-4.279-10.113-6.277-14.1-5.922S114.8,6.9,111.075,8.388c-2.437.972-4.284,3.21-3.355,4.94a14.245,14.245,0,0,1-4.514.99s-.144,2.2,1.08,2.781l3.839,2.515c5.121.677,14.11-4.363,15.844-5.949a27.155,27.155,0,0,1,5.295-3.8c-1.629,4.277,3.681,3.331,3.54,4.99-1.628,6.014,3.281,8.236,3.281,8.236l.12,5.255c-.11,1.349.468,2.388,1.819,2.3h0A10.641,10.641,0,0,0,139.734,27a50.378,50.378,0,0,0-.411-12.737" transform="translate(-48.892 -1.681)" fill="#263238"/>
            <path id="Path_87935" data-name="Path 87935" d="M131.617,89.294a20.9,20.9,0,0,0,11.017-4.12s-2.195,6.378-10.825,6.233Z" transform="translate(-62.354 -40.352)" fill="#eb996e"/>
            <path id="Path_87936" data-name="Path 87936" d="M144.9,46.128a1.23,1.23,0,0,0,1.274,1.151,1.177,1.177,0,0,0,1.184-1.2,1.231,1.231,0,0,0-1.272-1.152,1.178,1.178,0,0,0-1.185,1.2" transform="translate(-68.648 -21.285)" fill="#263238"/>
            <path id="Path_87937" data-name="Path 87937" d="M142.191,40.268c.163.166,1.2-.486,2.645-.429,1.444.037,2.486.757,2.648.6.079-.069-.081-.365-.536-.689a3.948,3.948,0,0,0-2.113-.679,3.739,3.739,0,0,0-2.111.542c-.452.3-.612.581-.533.656" transform="translate(-67.355 -18.509)" fill="#263238"/>
            <path id="Path_87938" data-name="Path 87938" d="M141.952,32.6c.128.361,1.451.2,3,.4,1.556.168,2.8.632,3.014.311.093-.154-.123-.494-.627-.847a5.269,5.269,0,0,0-4.584-.54c-.572.225-.861.506-.806.677" transform="translate(-67.247 -14.984)" fill="#263238"/>
            <path id="Path_87939" data-name="Path 87939" d="M134.529,66.806a24,24,0,0,1,3.4-.863l.834-.265a2.941,2.941,0,0,1,.19,2.487,2.39,2.39,0,0,1-1.627,1.116,1.735,1.735,0,0,1-1.39-.224,2.8,2.8,0,0,1-1.4-2.25" transform="translate(-63.734 -31.115)" fill="#eb996e"/>
            <path id="Path_87940" data-name="Path 87940" d="M136.7,69.184a2.8,2.8,0,0,0,1.248-.5,2.354,2.354,0,0,0,.8-1.178,2.949,2.949,0,0,0-.008-1.745l-.031-.093.159.087c-1.263.281-2.4.52-3.233.68a6.838,6.838,0,0,1-1.35.2,6.742,6.742,0,0,1,1.308-.39c.817-.208,1.952-.478,3.215-.76l.121-.027.038.114.034.1a3.1,3.1,0,0,1-.012,1.908,2.464,2.464,0,0,1-.923,1.256,2.055,2.055,0,0,1-.981.37.711.711,0,0,1-.382-.029" transform="translate(-63.617 -31.013)" fill="#263238"/>
            <path id="Path_87941" data-name="Path 87941" d="M172.48,35.305a1.15,1.15,0,0,1-.355-.092,2.069,2.069,0,0,1-.819-.656,3.126,3.126,0,0,1-.606-1.547,9.362,9.362,0,0,1,.092-2.192,5.916,5.916,0,0,0-.114-2.57,2.467,2.467,0,0,0-.79-1.142,6.028,6.028,0,0,0-1.317-.769,9.121,9.121,0,0,1-1.463-.788,3.124,3.124,0,0,1-1.1-1.376,19.815,19.815,0,0,1-.7-3.544,4.122,4.122,0,0,0-.695-1.609,2.322,2.322,0,0,0-1.4-.857c-.55-.127-1.124-.145-1.687-.258a2.533,2.533,0,0,1-1.492-.8,3.528,3.528,0,0,1-.669-1.457c-.124-.5-.2-.986-.3-1.445a5.417,5.417,0,0,0-.441-1.268,5.182,5.182,0,0,0-.706-1.019,5.518,5.518,0,0,0-3.245-1.771,8.1,8.1,0,0,0-1.391-.032,3.782,3.782,0,0,1,1.405-.074,5.517,5.517,0,0,1,3.376,1.747,5.353,5.353,0,0,1,.749,1.05,5.6,5.6,0,0,1,.475,1.316c.109.467.187.953.312,1.436a3.314,3.314,0,0,0,.627,1.352,2.283,2.283,0,0,0,1.352.7c.535.106,1.111.122,1.7.254a2.591,2.591,0,0,1,1.558.951,4.381,4.381,0,0,1,.747,1.715,20.4,20.4,0,0,0,.676,3.5,2.86,2.86,0,0,0,1,1.268,9.045,9.045,0,0,0,1.418.772,6.2,6.2,0,0,1,1.363.813,2.7,2.7,0,0,1,.851,1.254,6.04,6.04,0,0,1,.09,2.666,9.508,9.508,0,0,0-.132,2.152,3.081,3.081,0,0,0,.539,1.5,2.165,2.165,0,0,0,1.089.811" transform="translate(-72.62 -4.746)" fill="#455a64"/>
            <path id="Path_87942" data-name="Path 87942" d="M99.77,12.431a1.391,1.391,0,0,1,.264.169l.736.507a13,13,0,0,0,2.9,1.5,7.062,7.062,0,0,0,4.711.094,4.9,4.9,0,0,0,2.253-1.618,17.086,17.086,0,0,0,1.542-2.651,8.121,8.121,0,0,1,1.873-2.5,7.957,7.957,0,0,1,2.526-1.458,9.57,9.57,0,0,1,4.875-.358,13.182,13.182,0,0,1,3.156.978c.355.161.625.3.805.4a1.37,1.37,0,0,1,.268.164,1.337,1.337,0,0,1-.292-.114c-.187-.083-.463-.2-.823-.348a14.353,14.353,0,0,0-3.145-.886,9.534,9.534,0,0,0-4.758.4,7.782,7.782,0,0,0-2.435,1.423,7.918,7.918,0,0,0-1.808,2.43,16.933,16.933,0,0,1-1.574,2.69,5.127,5.127,0,0,1-2.378,1.689,7.184,7.184,0,0,1-4.862-.15,12.065,12.065,0,0,1-2.894-1.594c-.316-.229-.552-.419-.709-.55a1.354,1.354,0,0,1-.23-.214" transform="translate(-47.266 -2.82)" fill="#455a64"/>
            <path id="Path_87943" data-name="Path 87943" d="M95.545,33.118c.032-.036.437.317,1.168.766a10.2,10.2,0,0,0,6.4,1.448c.853-.091,1.371-.235,1.384-.188.006.018-.119.069-.351.146a6.323,6.323,0,0,1-1.007.235,9.151,9.151,0,0,1-6.532-1.478A6.28,6.28,0,0,1,95.8,33.4c-.176-.169-.267-.269-.254-.283" transform="translate(-45.264 -15.688)" fill="#455a64"/>
            <path id="Path_87944" data-name="Path 87944" d="M104.945,42.458c.033-.074.929.292,2.093.483s2.129.147,2.135.229a5.894,5.894,0,0,1-4.228-.712" transform="translate(-49.718 -20.11)" fill="#455a64"/>
            <path id="Path_87945" data-name="Path 87945" d="M100.685,99.393l-16.9,4.654-18.225,13.17,4.86,8.315,85.942.148s-3.134-11.485-4.163-15.012c-1.552-5.318-3.658-6.823-5.581-8.768a9.074,9.074,0,0,0-3.069-1.805c-3.4-.74-19.127-4.275-22.19-4.189,0,0-3.531,7.3-10.928,7.227s-9.752-3.74-9.752-3.74" transform="translate(-31.062 -45.435)" fill="#455a64"/>
            <path id="Path_87946" data-name="Path 87946" d="M198.484,119.588c.053.014.211-.694.71-1.732a14.077,14.077,0,0,1,2.606-3.642,32.551,32.551,0,0,1,3.414-2.961,12.435,12.435,0,0,0,1.459-1.193,10.385,10.385,0,0,0-1.59,1.017A24.69,24.69,0,0,0,201.577,114a12.59,12.59,0,0,0-2.583,3.767,8.074,8.074,0,0,0-.438,1.318,1.472,1.472,0,0,0-.072.505" transform="translate(-94.03 -52.141)" fill="#263238"/>
            <path id="Path_87947" data-name="Path 87947" d="M100.113,134.584a9.439,9.439,0,0,0,.057-1.787c-.012-1.1-.071-2.627-.2-4.306s-.3-3.195-.457-4.287a9.448,9.448,0,0,0-.327-1.757,10.988,10.988,0,0,0,.109,1.782c.1,1.195.227,2.662.366,4.286.109,1.625.208,3.094.288,4.29a11.041,11.041,0,0,0,.163,1.779" transform="translate(-46.983 -58.01)" fill="#263238"/>
            <g id="Group_118922" data-name="Group 118922" transform="translate(43.985 72.836)" opacity="0.3">
              <g id="Group_118921" data-name="Group 118921">
                <g id="Group_118920-2" data-name="Group 118920" clip-path="url(#clip-path-4)">
                  <path id="Path_87948" data-name="Path 87948" d="M87.659,144.331a8.908,8.908,0,0,0,3.837-1.958,3.633,3.633,0,0,0,.966-3.966,12.476,12.476,0,0,0,11.507,7.159l-20.387.254a17.6,17.6,0,0,1,4.077-1.489" transform="translate(-83.582 -138.407)"/>
                </g>
              </g>
            </g>
            <path id="Path_87949" data-name="Path 87949" d="M255.931,149.054s-2.066-2.809-3.084-3.341a3,3,0,0,0-3.034.036l-.616.552s-3.207-1.44-4.75-.333c0,0-3.052-1.442-4.511.209,0,0-2.352-1.529-3.348-.194a5.469,5.469,0,0,0-.41,4.751c.48,1.161,1.383,5.119,2.084,5.189,0,0,1.875.2,2.126-.814s.357-1.5.357-1.5.716,3.587,1.58,3.764,2.51.083,2.566-1.491c0,0,.8,1.189,1.583.843s1.749-.919,1.663-1.892-.1-1.946-.1-1.946.429,1.418,1.137,1.11,1.42-.242,1.818-1.445,1.384-3.5,1.384-3.5Z" transform="translate(-111.722 -68.848)" fill="#ffbe9d"/>
            <path id="Path_87950" data-name="Path 87950" d="M258.425,153.581c.044-.023-.142-.388-.306-1.014A5.58,5.58,0,0,1,259,147.8c.378-.525.683-.8.649-.837a2.232,2.232,0,0,0-.822.7,5.093,5.093,0,0,0-.921,4.967,2.227,2.227,0,0,0,.517.95" transform="translate(-122.052 -69.623)" fill="#eb996e"/>
            <path id="Path_87951" data-name="Path 87951" d="M251.242,146.586a4.936,4.936,0,0,0-.411,1.412,13.988,13.988,0,0,0,.473,7.032,4.927,4.927,0,0,0,.6,1.345,25.323,25.323,0,0,1-.972-4.851,25.314,25.314,0,0,1,.314-4.938" transform="translate(-118.717 -69.446)" fill="#eb996e"/>
            <path id="Path_87952" data-name="Path 87952" d="M243.353,147.033a15.063,15.063,0,0,0,.858,7.478c.09-.026-.363-1.657-.594-3.721s-.17-3.753-.264-3.758" transform="translate(-115.214 -69.658)" fill="#eb996e"/>
            <path id="Path_87953" data-name="Path 87953" d="M219.454,147.906a1.2,1.2,0,0,1,.807-.654,2.611,2.611,0,0,1,2.326.623,9.006,9.006,0,0,1,1.7,2.094l-4.547-.029c.044-.7-.542-1.386-.287-2.034" transform="translate(-103.937 -69.725)" fill="#ffbe9d"/>
            <path id="Path_112666" data-name="Path 112666" d="M4.55,139.354a7.556,7.556,0,0,1,6.321-.626l8.775,3.055c.472.506,14.951-5.076,14.951-5.076l4.86,8.3-27.668-.038" transform="translate(0.643 -64.615)" fill="#ffbe9d"/>
            <g id="Group_146299" data-name="Group 146299" transform="matrix(0.375, 0.927, -0.927, 0.375, 78.011, 18.536)">
              <path id="Path_112665" data-name="Path 112665" d="M.292,146.2a9.125,9.125,0,0,1,4.258-6.843,7.556,7.556,0,0,1,6.321-.626,18.506,18.506,0,0,1,.918,6.244l4.831,4.951,1.879,6.239-.187,5.649c-.992.458-2.478-1.286-2.478-1.286l-.868,1.592.289,1.535s2.558,6.21,2.469,7.591a.784.784,0,0,1-.806.786A1.853,1.853,0,0,1,15.141,171L11.5,163.931s-2.815-.687-3.8-1.613c-1.032-.973-2.495-2.726-2.495-2.726l-1.786-.255a.971.971,0,0,1-.618-.123,3.339,3.339,0,0,1-1.81-2.421l-.907-4.76a28.771,28.771,0,0,1,.2-5.835" transform="translate(24.107 -58.698)" fill="#ffbe9d"/>
              <path id="Path_112668" data-name="Path 112668" d="M16.2,178.11a9.139,9.139,0,0,0,1.145,2.923,9.153,9.153,0,0,0,1.844,2.541c.068-.054-.768-1.174-1.588-2.681s-1.319-2.811-1.4-2.782" transform="translate(16.337 -78.668)" fill="#eb996e"/>
              <path id="Path_112669" data-name="Path 112669" d="M8.174,177.123a3.441,3.441,0,0,0,.8,1.536,4.822,4.822,0,0,0,1.149,1.294,5.625,5.625,0,0,0-.911-1.465,10.723,10.723,0,0,0-1.042-1.365" transform="translate(20.142 -78.2)" fill="#eb996e"/>
              <path id="Path_112667" data-name="Path 112667" d="M27.7,180.081a15.238,15.238,0,0,0-.5-1.725c-.32-1.059-.736-2.529-1.144-4.167-.2-.819-.388-1.6-.547-2.315a5.986,5.986,0,0,1-.188-1.891A2.944,2.944,0,0,1,26,168.395c-.009-.013-.167.075-.368.324a2.614,2.614,0,0,0-.506,1.239,5.732,5.732,0,0,0,.129,1.972c.146.721.322,1.509.527,2.331.409,1.645.859,3.113,1.231,4.16a8.478,8.478,0,0,0,.693,1.66" transform="translate(12.123 -74.065)" fill="#eb996e"/>
              <path id="Path_112670" data-name="Path 112670" d="M26.445,170.67c-.036.032.264.37.611,1a6.334,6.334,0,0,1,.785,2.639,8.133,8.133,0,0,0,.131,1.575,2.32,2.32,0,0,0,.665,1.145,2.563,2.563,0,0,0,.982.673c.031-.042-.356-.29-.831-.815a2.241,2.241,0,0,1-.552-1.06,9.45,9.45,0,0,1-.1-1.536,5.721,5.721,0,0,0-.9-2.726,2.679,2.679,0,0,0-.789-.889" transform="translate(11.479 -75.143)" fill="#eb996e"/>
              <path id="Path_112671" data-name="Path 112671" d="M19.1,148.46c.054-.067-.975-.92-2.009-2.189-1.047-1.251-1.7-2.438-1.793-2.361a3.3,3.3,0,0,0,.363.793,11.792,11.792,0,0,0,1.2,1.755,7.489,7.489,0,0,0,2.235,2" transform="translate(16.759 -62.465)" fill="#eb996e"/>
            </g>
            <g id="Group_118925" data-name="Group 118925" transform="translate(97.66 72.279)" opacity="0.3">
              <g id="Group_118924" data-name="Group 118924">
                <g id="Group_118923" data-name="Group 118923" clip-path="url(#clip-path-5)">
                  <path id="Path_87960" data-name="Path 87960" d="M190.8,145.276l.344-7.926-5.568,7.917Z" transform="translate(-185.579 -137.349)"/>
                </g>
              </g>
            </g>
            <path id="Path_87961" data-name="Path 87961" d="M195.475,143.974a40.227,40.227,0,0,1,.123-4.694,40.2,40.2,0,0,1,.4-4.679,40.443,40.443,0,0,1-.124,4.694,40.418,40.418,0,0,1-.4,4.679" transform="translate(-92.592 -63.768)" fill="#263238"/>
            <path id="Path_87962" data-name="Path 87962" d="M158.4,99.8a1.4,1.4,0,0,1,.142.513,2.3,2.3,0,0,1-.384,1.467,3.323,3.323,0,0,1-1.928,1.417,10.527,10.527,0,0,1-3.182.268,11.961,11.961,0,0,0-1.829.093,4.382,4.382,0,0,0-1.827.651,3.786,3.786,0,0,0-1.309,1.589,10.249,10.249,0,0,0-.674,2.141c-.172.757-.325,1.545-.566,2.335a6.457,6.457,0,0,1-1.169,2.244,6.6,6.6,0,0,1-4.626,2.4,6.845,6.845,0,0,1-4.916-1.759,7.6,7.6,0,0,1-1.551-1.992,4.366,4.366,0,0,0-1.511-1.732,3.588,3.588,0,0,0-2.134-.372,18.459,18.459,0,0,0-2.1.359,10.81,10.81,0,0,1-2,.273,5.284,5.284,0,0,1-1.851-.294,6.289,6.289,0,0,1-2.652-1.771,6.113,6.113,0,0,1-1.241-2.066,5.726,5.726,0,0,1-.233-.851c-.029-.254-.068-.467-.072-.641s0-.292,0-.4a.5.5,0,0,1,.01-.134,6.367,6.367,0,0,0,.391,1.987,6.341,6.341,0,0,0,3.855,3.689,5.121,5.121,0,0,0,1.784.266,10.742,10.742,0,0,0,1.962-.285,18.279,18.279,0,0,1,2.127-.377,3.826,3.826,0,0,1,2.28.393,4.605,4.605,0,0,1,1.61,1.817,7.359,7.359,0,0,0,1.505,1.927,6.592,6.592,0,0,0,4.72,1.685,6.348,6.348,0,0,0,4.435-2.3,10.054,10.054,0,0,0,1.7-4.465,10.389,10.389,0,0,1,.7-2.189,4.008,4.008,0,0,1,1.4-1.674,4.574,4.574,0,0,1,1.923-.671,11.946,11.946,0,0,1,1.862-.078,10.552,10.552,0,0,0,3.135-.222,3.226,3.226,0,0,0,1.882-1.328,2.3,2.3,0,0,0,.418-1.4,4.892,4.892,0,0,0-.086-.517" transform="translate(-57.224 -47.28)" fill="#fff"/>
            <path id="Path_87963" data-name="Path 87963" d="M124.069,132.661a1.921,1.921,0,0,1-.112-.361l-.286-1.04a12.448,12.448,0,0,0-1.558-3.606,6.131,6.131,0,0,0-.837-.984,5.26,5.26,0,0,0-1.141-.8,5.887,5.887,0,0,0-3-.529,20.5,20.5,0,0,0-3.4.593,14.147,14.147,0,0,1-3.728.483,4.618,4.618,0,0,1-4.9-4.522,16.389,16.389,0,0,1,.073-3.166,15.453,15.453,0,0,0,.066-2.721,4.932,4.932,0,0,0-1.639-3.44,3.7,3.7,0,0,0-1.276-.647s.033,0,.1.008a1.91,1.91,0,0,1,.277.061,2.936,2.936,0,0,1,.97.494,4.977,4.977,0,0,1,1.766,3.505,15.265,15.265,0,0,1-.033,2.758,16.434,16.434,0,0,0-.049,3.121,4.922,4.922,0,0,0,1.322,3.047,4.87,4.87,0,0,0,3.331,1.229,14.042,14.042,0,0,0,3.66-.47,20.3,20.3,0,0,1,3.448-.584,6.09,6.09,0,0,1,3.121.578,5.451,5.451,0,0,1,1.184.844,6.284,6.284,0,0,1,.851,1.029,11.892,11.892,0,0,1,1.5,3.687c.114.456.189.813.237,1.056a1.988,1.988,0,0,1,.058.373" transform="translate(-48.479 -53.024)" fill="#fff"/>
            <path id="Path_87964" data-name="Path 87964" d="M185.868,137.343a12.248,12.248,0,0,0-2.3-.877,8.338,8.338,0,0,0-2.64-.194,7.752,7.752,0,0,0-3.079.944,8.249,8.249,0,0,0-2.456,2.093,7.684,7.684,0,0,0-1.258,2.321,3.3,3.3,0,0,0-.117,1.751,5.152,5.152,0,0,0,.23.615c-.007.005-.047-.039-.116-.132a1.808,1.808,0,0,1-.217-.454,3.215,3.215,0,0,1,.034-1.834,7.535,7.535,0,0,1,1.245-2.422,8.235,8.235,0,0,1,2.522-2.178,7.771,7.771,0,0,1,3.192-.956,8.1,8.1,0,0,1,2.708.258,7.371,7.371,0,0,1,1.7.688,4.08,4.08,0,0,1,.421.265c.093.065.139.1.134.112" transform="translate(-82.339 -64.43)" fill="#fff"/>
            <path id="Path_87965" data-name="Path 87965" d="M207.1,107.532c-.028.014-.19-.217-.323-.651a3.806,3.806,0,0,1,.652-3.359c.285-.353.523-.507.543-.484a4.857,4.857,0,0,0-.873,4.494" transform="translate(-97.893 -48.814)" fill="#fff"/>
            <path id="Path_87966" data-name="Path 87966" d="M215.248,131.4a.767.767,0,0,1-.055.229,4.317,4.317,0,0,1-.244.633,6.155,6.155,0,0,1-1.509,1.979,6.445,6.445,0,0,1-3.349,1.531,11.966,11.966,0,0,1-4.468-.624,10.208,10.208,0,0,0-2.266-.344,6.233,6.233,0,0,0-2.088.323,7.257,7.257,0,0,0-2.993,1.952,6.918,6.918,0,0,0-1.307,2.052c-.223.535-.282.856-.314.848a.781.781,0,0,1,.034-.234,4,4,0,0,1,.18-.653,6.548,6.548,0,0,1,1.262-2.143,7.288,7.288,0,0,1,3.057-2.062,6.391,6.391,0,0,1,2.173-.353,10.22,10.22,0,0,1,2.327.346,12.058,12.058,0,0,0,4.372.639,6.373,6.373,0,0,0,3.255-1.428,6.508,6.508,0,0,0,1.54-1.879c.274-.511.364-.824.393-.814" transform="translate(-93.165 -62.251)" fill="#fff"/>
            <path id="Path_87967" data-name="Path 87967" d="M87.5,140.175c0,.009-.062.02-.183.03a3.03,3.03,0,0,1-.532.007,5.127,5.127,0,0,1-1.893-.491,5.59,5.59,0,0,1-2.212-1.88,5.181,5.181,0,0,1-.721-1.577,13.851,13.851,0,0,1-.312-1.814,5.955,5.955,0,0,0-1.037-3.234,4.124,4.124,0,0,0-2.428-1.276,12.644,12.644,0,0,0-1.914-.193,3.965,3.965,0,0,1-.711-.046,3.3,3.3,0,0,1,.711-.061,10.329,10.329,0,0,1,1.949.108,4.245,4.245,0,0,1,2.585,1.3,4.01,4.01,0,0,1,.8,1.549,12.338,12.338,0,0,1,.322,1.815,14.2,14.2,0,0,0,.3,1.779,5.007,5.007,0,0,0,.672,1.5,5.547,5.547,0,0,0,2.088,1.847,6.437,6.437,0,0,0,2.523.628" transform="translate(-35.794 -61.416)" fill="#fff"/>
          </g>
        </g>
      </g>
    </g>
  </g>
</svg>
